/* XPM */
static char *_da6a76a57cf4b0695642c830295b2c58lywbc3R9QaNcHpr[] = {
/* columns rows colors chars-per-pixel */
"80 80 238 2 ",
"   c #000000",
".  c #0B0502",
"X  c #0C0906",
"o  c #020709",
"O  c #04090A",
"+  c #0B0B0B",
"@  c #140401",
"#  c #1B0501",
"$  c #140A06",
"%  c #1A0903",
"&  c #120C0B",
"*  c #1B0E0C",
"=  c #0C110E",
"-  c #15110C",
";  c #1C110E",
":  c #040F13",
">  c #0C1314",
",  c #081417",
"<  c #131414",
"1  c #1B1413",
"2  c #141718",
"3  c #141B1C",
"4  c #1B1B1B",
"5  c #230401",
"6  c #2C0600",
"7  c #250B03",
"8  c #2B0B02",
"9  c #240E0B",
"0  c #320703",
"q  c #320C02",
"w  c #3B0C02",
"e  c #291206",
"r  c #22120E",
"t  c #2D120C",
"y  c #331004",
"u  c #3E1105",
"i  c #35130C",
"p  c #3C140B",
"a  c #231412",
"s  c #2B1511",
"d  c #211D1C",
"f  c #2A1B19",
"g  c #331A16",
"h  c #361A17",
"j  c #3B1B14",
"k  c #39221D",
"l  c #101F23",
"z  c #1E2324",
"x  c #192628",
"c  c #1F2F31",
"v  c #1D373B",
"b  c #232323",
"n  c #262827",
"m  c #242A2B",
"M  c #2C2C2C",
"N  c #382725",
"B  c #302E2D",
"V  c #2B312F",
"C  c #272E31",
"Z  c #2C3233",
"A  c #283638",
"S  c #353030",
"D  c #343434",
"F  c #373736",
"G  c #343738",
"H  c #333B3C",
"J  c #3B3B3B",
"K  c #430E04",
"L  c #431206",
"P  c #4B1306",
"I  c #44130A",
"U  c #4C160B",
"Y  c #46180D",
"T  c #4D190D",
"R  c #531206",
"E  c #5A1406",
"W  c #54160B",
"Q  c #5B170A",
"!  c #54190D",
"~  c #5B1A0D",
"^  c #431B15",
"/  c #461C15",
"(  c #4B1A13",
")  c #521C12",
"_  c #5B1D11",
"`  c #66190C",
"'  c #631C0E",
"]  c #711D0D",
"[  c #641E11",
"{  c #6C1F11",
"}  c #47221C",
"|  c #5C2115",
" . c #59241B",
".. c #76200F",
"X. c #632115",
"o. c #6B2215",
"O. c #64241A",
"+. c #6C2519",
"@. c #6D291D",
"#. c #732416",
"$. c #792415",
"%. c #73261A",
"&. c #7A2719",
"*. c #74291D",
"=. c #7C2A1D",
"-. c #432623",
";. c #4A2823",
":. c #542A24",
">. c #53332D",
",. c #473935",
"<. c #423E3C",
"1. c #573D37",
"2. c #6C2C22",
"3. c #722D22",
"4. c #7C2D21",
"5. c #68342B",
"6. c #7D3226",
"7. c #78352A",
"8. c #643933",
"9. c #703E35",
"0. c #3F403F",
"q. c #48413E",
"w. c #56443E",
"e. c #2A3F41",
"r. c #363F40",
"t. c #2D4042",
"y. c #374546",
"u. c #3C4344",
"i. c #3B4A4D",
"p. c #434343",
"a. c #4B4543",
"s. c #4B4847",
"d. c #444A4B",
"f. c #4C4C4C",
"g. c #544946",
"h. c #51524F",
"j. c #434E50",
"k. c #4B4F51",
"l. c #504F50",
"z. c #4B5253",
"x. c #485355",
"c. c #545353",
"v. c #595856",
"b. c #535B5B",
"n. c #5B5C5B",
"m. c #6D4D47",
"M. c #7C4E49",
"N. c #64524D",
"B. c #6A5956",
"V. c #645F5E",
"C. c #775D59",
"Z. c #5F605F",
"A. c #6A615D",
"S. c #555F61",
"D. c #605F60",
"F. c #4D6768",
"G. c #5A6364",
"H. c #596969",
"J. c #596D70",
"K. c #636463",
"L. c #656866",
"P. c #656A69",
"I. c #6B6B6B",
"U. c #726B6A",
"Y. c #6A7575",
"T. c #727472",
"R. c #767A79",
"E. c #7C7D7C",
"W. c #801E0D",
"Q. c #83281A",
"!. c #8A2B1D",
"~. c #992E1E",
"^. c #A2301F",
"/. c #812D21",
"(. c #8A2E21",
"). c #922F21",
"_. c #843226",
"`. c #8B3225",
"'. c #8C3629",
"]. c #88382C",
"[. c #953425",
"{. c #9A3729",
"}. c #923A2D",
"|. c #893C33",
" X c #953E31",
".X c #9E3E32",
"XX c #A53A2B",
"oX c #AF3E2F",
"OX c #8B4438",
"+X c #934437",
"@X c #9D4235",
"#X c #9D4539",
"$X c #AA402F",
"%X c #A24236",
"&X c #A34639",
"*X c #A7473B",
"=X c #AB4A3E",
"-X c #B74637",
";X c #B34C3E",
":X c #944E44",
">X c #83524C",
",X c #88534D",
"<X c #8A544D",
"1X c #98544B",
"2X c #AA4F43",
"3X c #AB5549",
"4X c #B75549",
"5X c #B75A4D",
"6X c #B66459",
"7X c #9C6760",
"8X c #C5594A",
"9X c #D55A4A",
"0X c #C25E51",
"qX c #C6665A",
"wX c #CB6A5E",
"eX c #D56F63",
"rX c #DC7164",
"tX c #D67468",
"yX c #7B827E",
"uX c #EE8375",
"iX c #788382",
"pX c #858584",
"aX c #848C89",
"sX c #8B8B8B",
"dX c #8F928F",
"fX c #939493",
"gX c #949594",
"hX c #999C9B",
"jX c #A7ADAB",
"kX c #B6B6B6",
"lX c #EA9388",
"zX c #E99D92",
"xX c #F0A094",
"cX c #F5B2A8",
"vX c #BAC0BF",
"bX c #BAC3C1",
"nX c #C4C4C5",
"mX c #C4D1CF",
/* pixels */
"                                                                                                                                                                ",
"                                                                                                                                                                ",
"                                                                                                                                                                ",
"                                                                                                                                                                ",
"                                                                                                                                                                ",
"                                                                              X X                                                                               ",
"                                                                              b b                                                                               ",
"                                                                              p.p.                                                                              ",
"                                                                          + O J J   O                                                                           ",
"                                        + b X           < J n           X n.n.B B 2 M &           b J <           o b +                                         ",
"                                        b sXf.        < q.jXsX+       o b T.U.p.G 4 c.M O       X dXkXf.<         b.sXb                                         ",
"                                        b R.v.2     < p.I.pXsXc.o     X F p.b p.F   F J +       L.pXD.l.p.4     F yXT.d                                         ",
"                                        2 n.s.a j i z p.hXhXiXU.q ( a o n B 4 b 4 < B b O r ) ( dXaXn.c.f.z 7 ! 1.L.v.<                                         ",
"                                          G y.5 ] $.f r.T.T.G.c.W ~.^ o b p.J b n n p.<   ( oX{.U.P.K.l.u.n O.^.2.S.Z                                           ",
"                                          4 C i { ' s Z K.I.Z.v.W Q.^ x B F b b b & M Z + U [.`.V.G.V.f.Z 3 | ~.9.d.<                                           ",
"                                          X > t o.[ s C n.I.H.c.L Q.} , M c.M o O n s.x < Q [.`.B.G.V.f.Z 3 | [.5.x o                                           ",
"                                            + t &.[ t m z.K.H.c.w Q.W 1 u.c.s.b b d.c.b   ( [.`.B.H.G.f.m 3 | XX2.:                                             ",
"                                            o 9 _ P a z s.Y.yXb.7 Q.~ S d.J M n D p.s.G : i {.$.A.Y.Y.f.b 3 p #.T                                               ",
"                                            o + $ $ z 3 c g.m.t.$ ] T Z r.M z.L.f.J F J x i !.P 0.z.w.c x 4 $ @ $ O                                             ",
"                                            o     > , r  .Q.W.i o r ; 3 4 p.fXfXK.s.M d 3 1 p . 2 O.!. .a , + o o                                               ",
"                                                  + f `.-XXX+.$ o : O & n n.T.I.c.s.p.n < O O o O o.XX-X(.s O                                                   ",
"                                                  O s 4.X.T &       4 G s.v.T.T.c.p.f.f.G 4       $ T O./.s O                                                   ",
"                                                    O X o o         3 m A f.E.E.c.p.r.r.C 3         O O X O .                                                   ",
"                                                                  o X 8 h Z iXpXc.p.Z j 8 . O                                                                   ",
"                                                                O O 5 ..Q.;.aXgXc.u.h (.{.w   O                                                                 ",
"                                                              O & U *.2XXX' hXjXs.u.k }.8X;X| O O                                                               ",
"                                                              & 7 X.5X0X`.u jXbXf.u.b +._.=X4.8 &                                                               ",
"                                  o                           X 6 7.+XQ.%.Z R.aXc.z.n ) R +.+.w &                         o                                     ",
"      4 4 & * ; 1 1 1 1 & < 1 X X + O o & g 1 2 4 4 b n <     o 8 6X3X#.*.F d.p.f.z.F +.' 7.6.q X     < n b 4 4 < r g * X X X o   4 4 ; f 4 4 4 a d 1 z < O     ",
"    4 c.S.N O.:.:. .:.2.f i.g.w w L 8 7 ! ;X8.i.K.f.E.dXM     X 5 OX2Xo.@.b Z J p.G 1 o.o.@.@.8 &     M dXE.f.G.<.&.4XY q L u 7 6 B.J.B.6X7X>X>X>X:XK.gXf.&     ",
"o L.sXJ u.f ) } / ^ }  .g i.<.R ~ ! ! ~ ~ !.:.j.c.F K.T.M < 3 X 5 7.OX[ o.4 r.K.c.G > I | +.O.6 X 3 < M T.G.F b.s.` (.p W ) ! W E N.F.B.7X7X>X<X<X1XC.iXR.F . O ",
"- sXpXb Z f ) } ^ ^ / ) f t.,.{ X._ O.O.! $.-.i.f.F v.K.J F b : 1 o.=.+._ J P.fXI.G b L ! +.[ 8 X b F J K.n.D z.a.Q #.T 3.) [ o.` w.F.B.1XM.>X,X<X1XN.H.hXl.  + ",
"< v.c.B Z N ( h ^ j j T a A ,.[ T _ O.2.U &.;.i.c.F l.c.F M 4 + d N |.{.>.b.hXkXT.J m ;.3.>.j a + 3 V F c.f.F z.s.~ &.! _ ( _ *.{ ,.H.B.:XM.>X>XM.:XB.H.pXp.  X ",
"< K.n.M D B B M B B B n d H 1.R 9 s L p p Q.;.i.c.J J J D D 3 X m v 5.XX .G.kXkXU.h.C < L a y.Z   1 F F y.J <.c.<.~ /.W p a t I K q.G.f.V.V.K.K.V.V.K.L.E.p.& > ",
"+ c.n.M S Z C C D Z c c B r.1.] [ [ [ O.%.&.-.i.v.p.J p.p.F < + F A 8.{.o.n.mXnXR.b.m e u 7 J J X < F p.p.J p.b.q.Q %.3.2.[ [ _ _ w.u.c.G.F.P.I.F.F.L.T.I.F & + ",
"  , p.p.D 3 r N > + N g > k.a.q T _ U _ /.&.-.j.c.M F p.F D 4 b p.A } ~.+.Z.bXnXE.v.m e &.Y O V n 4 D F p.D M b.a.Q &.4._ U _ W q g.P.j.v.C.,.u.C.m.v.L.J < O   ",
"    < J J : 9 +.> : 4.P O j.q.w [ 2.! U %.&.-.y.f.D K.T.F 4 b p.d.,.3.).2.n.G.V.n.J 3 e !.:.O z J n z J T.K.B z.<.W =.*.U _ 2.+.R ,.G.i.C.9X5.e.3X{.u.H 1 =     ",
"      X 4 : 9 I 2 2 L # : d.J w 4.`.[ ) 3.&.) p.z.B T.fXD + J c.e.:.-X.X2.J O   < + + r Q.#X1 + F J < M sXE.C z.<.Q =.*._ [ 4.+.R ,.G.x.w.oX9.e.}.| C 4 o       ",
"        X + + ; + + & O < f.F 5 U =.O.) 4./.E g.z.B E.pXb b n.f.A 1.rX9X~ o z.T..   O & 6.9X8.O < f.m d pXiXA b.a.Q !.4.! ! ) K w >.z.Z a i ; > f - > +         ",
"          o             O < a 5 # 7 q U *.#.R s.x.F E.K.+ s.K.H k %XxXrX%.  u.v.= o o ) 8XrX&X$ O p.J < K.7XA z.a.R %.*.9 5 q 0 8 d < O                         ",
"                            o % # @ # ~ *.o.P a.z.G K.J < n.z.Z [ -X4X|._.1     o   ; `.+X;X$Xy   G p.< H P.F x.a.P #.*.; . q y & o                             ",
"                              o O # % p o.#.E a.S.p.p.< J K.u.k !.[.6   i ].s 9 9 h  Xi   p {.%.X m l.4 4 p.s.b.q.E $.X.; X ; O o                               ",
"                                  o O + % K I f.L.c.B + f.Y.u.W !.u . 5 X }.;X*X=X;X'.+ O   Y ).a l c.D < B l.L.s.L L $ + O                                     ",
"                                        o . & F f.c.M < h.T.s.' ` & gX6X@ 6.8XqX0X{.0 z b.: . o.t x K.s.< B l.f.F & . O .                                       ",
"                                          o X + d F n < n.aXb.{ R : hXL.. =.=XqX0Xo.# < F > O o.R G E.v.4 B F 4 + O o                                           ",
"                                                o < M 4 D Z < i ) o O O O *.%XwX0XU @ O   M m K i < M G b n <                                                   ",
"                                                    X < m <   a / O   o + %.@XqX4XK @ O + z.G p a   2 n < X o                                                   ",
"                                                        n D o j +X% : : a _.`.4X5XW 6 X , m 1 5X:.  D n                                                         ",
"                                                        n J o 7 oX/ o * /..X_.*X2XO.P 0     U 8Xh o J M                                                         ",
"                                                      o n x.F ) {.7.^ (..X3.4.4X3X%.| %.o.^ _..Xs x p.b o                                                       ",
"                                                        < b d /  X5XrXrX3.R &.eXqX=.' ].uXtX;X'.f , 4 X                                                         ",
"                                                              < }.4XrX:XI %.5XlXqX}.%.U :XtX@X'.r                                                               ",
"                                                              ; .X9X|.6 [ =XlXxXqX}.}._ 5 #X9X X*                                                               ",
"                                                              s =X Xp W =X0XzXcXwX@X}.`.P y +X4Xg                                                               ",
"                                                              h 4.  @ =.`. XxXcXwX2X3.[ @.@   ].k                                                               ",
"                                                              r W . # +.|._.zXcXrX=X_ | ! e   W s                                                               ",
"                                                              r U X % +.}.&XxXcXeX=X*.@.U $ . W a                                                               ",
"                                                              r u   r _ 4.'.6XwX#X=.X.o.U X $ w *                                                               ",
"                                                              & 8 . . X.&X_.2X8X+Xo.O.}.~ . * 8 X                                                               ",
"                                                                O O . *.%X_.4X5X#X=.%.}.| . O X                                                                 ",
"                                                                  O % #.%X_.#X2X}.=.%._.W # o                                                                   ",
"                                                                    % X. X/.&X=X'.%.O.6.P # o                                                                   ",
"                                                                  o . Y =.%XwXqX2X+X_.=.u X o                                                                   ",
"                                                                  o   8 4.=X&X:X].@._.%.y o o                                                                   ",
"                                                                    o q &.].%.=.o.X.6.X.q O                                                                     ",
"                                                                    o % P %.3._.4.*.=.R # O                                                                     ",
"                                                                    o   y | ! &.&.O.O.y   o                                                                     ",
"                                                                      o . W %.@X@X_._ . O                                                                       ",
"                                                                      o o w _.4X=X'.Y .                                                                         ",
"                                                                        O 8 +.@X'.~ 8 O                                                                         ",
"                                                                          $ P '.'.L $                                                                           ",
"                                                                          O % $.&.% O                                                                           ",
"                                                                            o U U o                                                                             ",
"                                                                              * &                                                                               ",
"                                                                              o o                                                                               ",
"                                                                                                                                                                ",
"                                                                                                                                                                ",
"                                                                                                                                                                ",
"                                                                                                                                                                ",
"                                                                                                                                                                "
};
