/* XPM */
static char *e0ea8d44a6904c9f90c2c2ea31e8c033nJ8nIRCbbz3U0UZ5[] = {
/* columns rows colors chars-per-pixel */
"80 80 236 2 ",
"   c #000000",
".  c #0B0502",
"X  c #0C0906",
"o  c #020709",
"O  c #04090A",
"+  c #0B0B0B",
"@  c #140401",
"#  c #1B0501",
"$  c #140A06",
"%  c #1A0903",
"&  c #120C0B",
"*  c #1B0E0C",
"=  c #0C110E",
"-  c #15110C",
";  c #1C110E",
":  c #040F13",
">  c #0C1314",
",  c #081417",
"<  c #131414",
"1  c #1B1413",
"2  c #141718",
"3  c #141B1C",
"4  c #1B1B1B",
"5  c #230401",
"6  c #2C0600",
"7  c #250B03",
"8  c #2B0B02",
"9  c #240E0B",
"0  c #320703",
"q  c #320C02",
"w  c #3B0C02",
"e  c #291206",
"r  c #22120E",
"t  c #2D120C",
"y  c #331004",
"u  c #3E1105",
"i  c #35130C",
"p  c #3C140B",
"a  c #231412",
"s  c #2B1511",
"d  c #211D1C",
"f  c #2A1B19",
"g  c #331A16",
"h  c #361A17",
"j  c #3B1B14",
"k  c #39221D",
"l  c #101F23",
"z  c #1E2324",
"x  c #192628",
"c  c #1F2F31",
"v  c #1D373B",
"b  c #232323",
"n  c #262827",
"m  c #242A2B",
"M  c #2C2C2C",
"N  c #382725",
"B  c #302E2D",
"V  c #2B312F",
"C  c #272E31",
"Z  c #2C3233",
"A  c #283638",
"S  c #353030",
"D  c #343434",
"F  c #373736",
"G  c #343738",
"H  c #333B3C",
"J  c #3B3B3B",
"K  c #430E04",
"L  c #431206",
"P  c #4B1306",
"I  c #44130A",
"U  c #4C160B",
"Y  c #46180D",
"T  c #4D190D",
"R  c #531206",
"E  c #5A1406",
"W  c #54160B",
"Q  c #5B170A",
"!  c #54190D",
"~  c #5B1A0D",
"^  c #431B15",
"/  c #461C15",
"(  c #4B1A13",
")  c #521C12",
"_  c #5B1D11",
"`  c #66190C",
"'  c #631C0E",
"]  c #711D0D",
"[  c #641E11",
"{  c #6C1F11",
"}  c #47221C",
"|  c #5C2115",
" . c #59241B",
".. c #76200F",
"X. c #632115",
"o. c #6B2215",
"O. c #64241A",
"+. c #6C2519",
"@. c #6D291D",
"#. c #732416",
"$. c #792415",
"%. c #73261A",
"&. c #7A2719",
"*. c #74291D",
"=. c #7C2A1D",
"-. c #432623",
";. c #4A2823",
":. c #542A24",
">. c #53332D",
",. c #473935",
"<. c #423E3C",
"1. c #573D37",
"2. c #6C2C22",
"3. c #722D22",
"4. c #7C2D21",
"5. c #68342B",
"6. c #7D3226",
"7. c #78352A",
"8. c #643933",
"9. c #703E35",
"0. c #3F403F",
"q. c #48413E",
"w. c #56443E",
"e. c #2A3F41",
"r. c #363F40",
"t. c #2D4042",
"y. c #374546",
"u. c #3C4344",
"i. c #3B4A4D",
"p. c #434343",
"a. c #4B4543",
"s. c #4B4847",
"d. c #444A4B",
"f. c #4C4C4C",
"g. c #544946",
"h. c #51524F",
"j. c #434E50",
"k. c #4B4F51",
"l. c #504F50",
"z. c #4B5253",
"x. c #485355",
"c. c #545353",
"v. c #595856",
"b. c #535B5B",
"n. c #5B5C5B",
"m. c #6D4D47",
"M. c #7C4E49",
"N. c #64524D",
"B. c #6A5956",
"V. c #645F5E",
"C. c #775D59",
"Z. c #5F605F",
"A. c #6A615D",
"S. c #555F61",
"D. c #605F60",
"F. c #4D6768",
"G. c #5A6364",
"H. c #596969",
"J. c #596D70",
"K. c #636463",
"L. c #656866",
"P. c #656A69",
"I. c #6B6B6B",
"U. c #726B6A",
"Y. c #6A7575",
"T. c #727472",
"R. c #767A79",
"E. c #7C7D7C",
"W. c #83281A",
"Q. c #8A2B1D",
"!. c #A2301F",
"~. c #812D21",
"^. c #8A2E21",
"/. c #922F21",
"(. c #843226",
"). c #8B3225",
"_. c #8C3629",
"`. c #88382C",
"'. c #953425",
"]. c #9A3729",
"[. c #923A2D",
"{. c #893C33",
"}. c #953E31",
"|. c #9E3E32",
" X c #A53A2B",
".X c #AF3E2F",
"XX c #8B4438",
"oX c #934437",
"OX c #9D4235",
"+X c #9D4539",
"@X c #AA402F",
"#X c #A24236",
"$X c #A34639",
"%X c #A7473B",
"&X c #AB4A3E",
"*X c #B74637",
"=X c #B34C3E",
"-X c #944E44",
";X c #83524C",
":X c #88534D",
">X c #8A544D",
",X c #98544B",
"<X c #AA4F43",
"1X c #AB5549",
"2X c #B75549",
"3X c #B75A4D",
"4X c #B66459",
"5X c #9C6760",
"6X c #C5594A",
"7X c #D55A4A",
"8X c #C25E51",
"9X c #C6665A",
"0X c #CB6A5E",
"qX c #D56F63",
"wX c #DC7164",
"eX c #D67468",
"rX c #7B827E",
"tX c #EE8375",
"yX c #788382",
"uX c #858584",
"iX c #848C89",
"pX c #8B8B8B",
"aX c #8F928F",
"sX c #939493",
"dX c #949594",
"fX c #999C9B",
"gX c #A7ADAB",
"hX c #B6B6B6",
"jX c #EA9388",
"kX c #E99D92",
"lX c #F0A094",
"zX c #F5B2A8",
"xX c #BAC0BF",
"cX c #BAC3C1",
"vX c #C4C4C5",
"bX c #C4D1CF",
/* pixels */
"                                                                                          + 2 < = .                                                             ",
"                                                                                        < c.K.c.pXL.                                                            ",
"                                                                                      > p.v.n.c.uXuX4                                                           ",
"                                                                                    + J p.m M D n J c.4                                                         ",
"                                                                                  X 4 J G B F Z Z u.S.4                                                         ",
"                                                                                  + : , 2 D V N f f N -                                                         ",
"                                                                                  + 9 t 1 Z B ( ) ) O.;                                                         ",
"                                                                                  & I +.k C M j } } :.*                                                         ",
"                                                                                  + 2 > + D M j ^ /  .1                                                         ",
"                                                                                  + 2 : o F M ^ ^ ^ :.1                                                         ",
"                                                                                  & u 4.N c B j ^ } :.*                                                         ",
"                                                                                  X % U g C M / )  .2.1                                                         ",
"                                                                                + > , O > M 4 s h h g >                                                         ",
"                                                                                2 d.f.j.f.y.r.A e.i.i.<                                                         ",
"                                                                              . a F ,.1.s.1.1.,.,.<.g.2                                                         ",
"                                                                            o $ # 5 0 0 0 { P ` o.R 0 $                                                         ",
"                                                                            O # # U &.[ W _ s ( [ ! w X                                                         ",
"                                                                          o % @ 5 4._.3._ [ s _ _ ! I X o                                                       ",
"                                                                          O # # q O.[ ) U [ p [ o.! 7 +                                                         ",
"                                                                          + p W U ! ! ( _ O.p 3.O.~ 5 o                                     o                   ",
"                                                                        o # o.=.*.4.*.&.~.%.p U ! ~ ! &                               < n d +                   ",
"                                                                      o . K %.o.%.~.=.&.&.$.W.&.%.Q.=Xk                         o 4 F Z.R.pXb                   ",
"                                                                      O < I E P R E ) -.-.-.;.;.-.:.8.1                   O o + > M u.d.b.f.+                   ",
"                                                                      + F s.q.s.a.a.u.y.d.i.i.j.i.j.i.>                 . O 9 t t t 6 a 2                       ",
"                                                                      4 f.K.b.z.k.x.z.k.c.v.c.l.f.c.K.4                 o $ ~ &.o.o.] p o                       ",
"                                                                  . < F f.c.d.G D S B S M p.J F F F f.4             o : + & P ' X.' $.p                         ",
"                                                                  + b M M S p.L.E.E.R.L.G J J l.n.K.E.b           . s s , z a t t s f z 2                       ",
"                                                            .     < b < > & 2 J K.uXsXT.p.p.r.c.K.T.aXn           + 4.'.r l z m Z Z H p.<.<                     ",
"                                                          < n n n b F b.c.f.F 2 + z M F F p.F F F M M <           o O.@X .c s.h.K.K.T.sXI.p.2                   ",
"                                                          b z.F F 2 B iXY.I.L.n.f.b = d D F D M D 2               . !  X~.g.Y.L.I.L.R.fXuXgXF                   ",
"                                                          z G o     > n.s.p.u.k.K.v.F d 4 2 2 4 m 3                 & o...m.R.H.L.Z.G.yXpXpXb                   ",
"                                          & r r r h s * * ^ ) 9 j a i [ [ W N S r.f.v.p.n + . : X X o . X & O         $ p e.b.c.c.v.c.I.c.&                     ",
"                                        . 6 u U W 6.<XOX|.}.|.@XoX} ( W ` Q.Q.' k A e.f.s.Z m d 1 5 5 0 7 8 X O       o o . 7 w L W ! 0                         ",
"                                o . o o o X o .     }.7X2X2X7./ % o O , + i ).*X|.9.:.S A A v N { 7.oX4X7.o.U O O   o O r ] W.W.W.W.'.(                         ",
"                          . O o   X @ % . o r % % @ w _.wXwXj   >   = dXsX@ 8 2XjXwX*X3.} :.8.{.*.XX<X,XXX8X&.5 X 2 4 O < ! ` W } ( ^ s                         ",
"                      o O   % q 8 L o.#.=.| _ +.+.W.W 0 -XeX~.* :   O I.3X%   }.tX8X|././. X X Xo.X.%.#.W.3X<X] 8 m F < 2 Z S < , l o o + X                     ",
"                    O . . e P %.W.=.[.#X|.#X~.}.{.).%X' K 6.].~.a : . . # + i (.*.~ 2.2.o.]  .>.X.o.*.*.%.). XW.g G d.n 4 J d.u.M S n m D b +                   ",
"                o X 8 w ! X.%._.<X+X(.(._.(._.#X^.}.8X&X#.R 3.OX(.*.&.4.6.}._.1     J D.n.n.G.b.J 1 b F B u ' ,.Z f.v.v.p.M J b.f.F p.M p.T.n.+                 ",
"              o % P +._.%.! *.+.+X0X%X+X2X1X4XlXkXkXkXjX4X&.=.`.).|.#X=X2X=Xi   u.c.o G.cXbXxXfXP.y.V i.R.gXdXiXyXrXT.T.sXc.M s.M b J 4 b I.n..                 ",
"          . & U %._.OX2XOX*._.W.+X9X%X1X3X8X0XzXzXzXzXlXjXqX2X&X2X9X0X9X9X%X9   v.T.  G.vXvXhXhXaXL.J p.pXcXgXdXuXE.T.P.sXL.b b o b n b p.p.F J p.b +           ",
"          . & U &.(._.&X+X=.=.+.`.<X_.}.+X}.$XqXqX0X0X9X9X9X1X<X3X2X8X8X9X&Xr o & O 2 n.rXR.U.T.P.b.p.s.v.s.f.f.c.h.c.l.K.l.F b + b b 1 F F B J p.b +           ",
"              o % U ~ ).(.X.*.| @.oX*.=.=.o.*.<X&X<X#X[._.=.+.o.W w U o.].=Xj   o   + J b.b.h.J G F F z.z.e.p.u.p.a.p.s.s.r.J s.n O b 2 o 4 4                   ",
"                O X 7 I | X.=.(.(.(.O.%.+.o.o.*._ *.[.[.=.[ _ L 6 @ @ # 0 ).[.;   O o 3 m m C m b < 2 D B z k k C r.f.p.M D s.c.s.M <.B F c.M o                 ",
"                    . . . y P X.*.=.6.(.[.[.O.+. .[ '._ Y `.&.0 X o o < z + p ^.( & e t e 7 1 ;.L L o.+._ +.'.'.j y.s.M z J H n n Z 2 z F M +                   ",
"                      o O   % q y u L ! | ~ U U ! %.P 5 -XtXo.  2 =   F b.O   oX6X6.=.Q.W.u u 3.W [ +._ W ).2X'.q Z S 2 4 l :   1 +   o O .                     ",
"                          . O o o . % # . . X $ 9 @ y +XeXwX^   x z.n > ,   p =XwX7X+X:.I 7 a >.+.O.2.6.+.&X=XL   2 4 o * j h Y ! U ( a o                       ",
"                                . o o o + % $ X     +X8XOX=X(.Y a G m O . Y ].@X$X8.a O O J y.j ' O.+.6.O.4.| o O   o o p Q.].].'.'..X)                         ",
"                                        o q 0 ! W `.2X[.)._.|.6X3Xi K o.+./.%.y & O + z V J A s 0 7 8 q w 8 . O         . P &.^.).).].(                         ",
"                                          & * a r k h r a a s j >.a p ! t a .   o 2 S <.M X   + X X & X & & o         + 2 p.A.V.B.V.U.aXL..                     ",
"                                                          2 x o     > H x l m G u.f.q.b 4 2 4 2 n 3                 & #.O.z.Y.G.G.G.P.iXuXpXb                   ",
"                                                          4 p.J F < M E.D.c.f.s.J n 2 4 D F D M F 2               . (  XW.w.Y.K.K.V.G.n.G.hXJ                   ",
"                                                          + b M n b G v.s.S 4 < 1 z M F F p.G F F M M <           o O.@X .c f.d.f.f.l.c.h.f.2                   ",
"                                                                o = b 4 < < 3 u.K.uXsXT.p.p.J c.L.T.aXn           . =.).a 3 z m Z F u.f.p.>                     ",
"                                                                  X n B B B p.K.E.E.R.K.S J J c.c.K.E.b           O h s < z 3 3 3 2 z n 2 .                     ",
"                                                                    - G l.l.s.H F B M S m s.F F F D f.4             o : : % p | ~ | O.7                         ",
"                                                                    o 4 l.G.b.x.k.z.z.z.b.b.b.z.z.b.G.4                   % #. X'./. X~                         ",
"                                                                      > S s.q.g.a.a.q.<.a.q.q.a.a.s.<.<                 o $ Y 2.5.9.@.1.Z                       ",
"                                                                      o - L E P P W ~ E W ~ ~ ~ Q ` =.r                   X o , x d.b.P.rXn.o                   ",
"                                                                      . o L $.#.&.W.=.=.=.&.=.=.#.^.2Xg                         o < F c.T.uXb                   ",
"                                                                        o % X.*.*.4.%.*.=.*.! ! T p Y ;                               2 b b +                   ",
"                                                                          + ; - 9 ~ ! Y _ +.w _ *.( 0 X                                                         ",
"                                                                          + $ . % ! o.| T O.a / _ ! u X o                                                       ",
"                                                                          o * q 0 _ *.+._ X.i | X.T p X                                                         ",
"                                                                            X e 0 u %.%.U [ I +.o.W 7 .                                                         ",
"                                                                            o & e K R R 0 [ K { ` E 0 .                                                         ",
"                                                                              o f ,.,.,.g.g.q.,.w.N.B.1                                                         ",
"                                                                                > z.G.D.P.u.G.H.F.H.J.4                                                         ",
"                                                                                . Z j.i.d.l.k.N.N.N.N.2                                                         ",
"                                                                                  2 w.C.B.H.V.-X>X5X4Xf                                                         ",
"                                                                                  j .X7XC.F.V.M.;X5X5Xd                                                         ",
"                                                                                  * 9.5.,.P.L.M.;X;X;X1                                                         ",
"                                                                                  > e.e.u.I.V.;X;X>X:X1                                                         ",
"                                                                                  f }.1XC.H.A.M.>X>X;X4                                                         ",
"                                                                                  -  .'.m.F.V.-X,X,X-Xd                                                         ",
"                                                                                  > Z u.v.P.L.B.N.K.A.4                                                         ",
"                                                                                  X 2 G K.Y.L.H.H.yXdXb                                                         ",
"                                                                                    . 2 J I.E.uXfXR.l.<                                                         ",
"                                                                                    o + < Z p.p.l.S > .                                                         ",
"                                                                                        X + +     o                                                             ",
"                                                                                          X 2 + & X                                                             "
};
