/* XPM */
static char *f76ed6431c144874a060f8ddf4a8f1b5tKhgXT26cCifmvSd[] = {
/* columns rows colors chars-per-pixel */
"80 80 233 2 ",
"   c #000000",
".  c #0B0502",
"X  c #0C0906",
"o  c #020709",
"O  c #04090A",
"+  c #0B0B0B",
"@  c #140401",
"#  c #1B0501",
"$  c #140A06",
"%  c #1A0903",
"&  c #120C0B",
"*  c #1B0E0C",
"=  c #0C110E",
"-  c #15110C",
";  c #1C110E",
":  c #040F13",
">  c #0C1314",
",  c #081417",
"<  c #131414",
"1  c #1B1413",
"2  c #141718",
"3  c #141B1C",
"4  c #1B1B1B",
"5  c #230401",
"6  c #2C0600",
"7  c #250B03",
"8  c #2B0B02",
"9  c #240E0B",
"0  c #320703",
"q  c #320C02",
"w  c #3B0C02",
"e  c #291206",
"r  c #22120E",
"t  c #2D120C",
"y  c #331004",
"u  c #3E1105",
"i  c #35130C",
"p  c #3C140B",
"a  c #231412",
"s  c #2B1511",
"d  c #211D1C",
"f  c #2A1B19",
"g  c #331A16",
"h  c #361A17",
"j  c #3B1B14",
"k  c #39221D",
"l  c #101F23",
"z  c #1E2324",
"x  c #192628",
"c  c #1F2F31",
"v  c #1D373B",
"b  c #232323",
"n  c #262827",
"m  c #242A2B",
"M  c #2C2C2C",
"N  c #382725",
"B  c #302E2D",
"V  c #2B312F",
"C  c #272E31",
"Z  c #2C3233",
"A  c #283638",
"S  c #353030",
"D  c #343434",
"F  c #373736",
"G  c #343738",
"H  c #333B3C",
"J  c #3B3B3B",
"K  c #430E04",
"L  c #431206",
"P  c #4B1306",
"I  c #44130A",
"U  c #4C160B",
"Y  c #46180D",
"T  c #4D190D",
"R  c #531206",
"E  c #5A1406",
"W  c #54160B",
"Q  c #5B170A",
"!  c #54190D",
"~  c #5B1A0D",
"^  c #431B15",
"/  c #461C15",
"(  c #4B1A13",
")  c #521C12",
"_  c #5B1D11",
"`  c #66190C",
"'  c #631C0E",
"]  c #711D0D",
"[  c #641E11",
"{  c #6C1F11",
"}  c #47221C",
"|  c #5C2115",
" . c #59241B",
".. c #632115",
"X. c #6B2215",
"o. c #64241A",
"O. c #6C2519",
"+. c #6D291D",
"@. c #732416",
"#. c #792415",
"$. c #73261A",
"%. c #7A2719",
"&. c #74291D",
"*. c #7C2A1D",
"=. c #432623",
"-. c #4A2823",
";. c #542A24",
":. c #53332D",
">. c #473935",
",. c #423E3C",
"<. c #573D37",
"1. c #6C2C22",
"2. c #722D22",
"3. c #7C2D21",
"4. c #68342B",
"5. c #7D3226",
"6. c #78352A",
"7. c #643933",
"8. c #3F403F",
"9. c #48413E",
"0. c #56443E",
"q. c #2A3F41",
"w. c #363F40",
"e. c #374546",
"r. c #3C4344",
"t. c #3B4A4D",
"y. c #434343",
"u. c #4B4543",
"i. c #4B4847",
"p. c #444A4B",
"a. c #4C4C4C",
"s. c #544946",
"d. c #51524F",
"f. c #434E50",
"g. c #4B4F51",
"h. c #504F50",
"j. c #4B5253",
"k. c #485355",
"l. c #545353",
"z. c #595856",
"x. c #535B5B",
"c. c #5B5C5B",
"v. c #6D4D47",
"b. c #7C4E49",
"n. c #64524D",
"m. c #6A5956",
"M. c #645F5E",
"N. c #775D59",
"B. c #5F605F",
"V. c #6A615D",
"C. c #555F61",
"Z. c #605F60",
"A. c #4D6768",
"S. c #5A6364",
"D. c #596969",
"F. c #596D70",
"G. c #636463",
"H. c #656866",
"J. c #656A69",
"K. c #6B6B6B",
"L. c #726B6A",
"P. c #6A7575",
"I. c #727472",
"U. c #767A79",
"Y. c #7C7D7C",
"T. c #83281A",
"R. c #8A2B1D",
"E. c #992E1E",
"W. c #A2301F",
"Q. c #812D21",
"!. c #8A2E21",
"~. c #922F21",
"^. c #843226",
"/. c #8B3225",
"(. c #8C3629",
"). c #88382C",
"_. c #953425",
"`. c #9A3729",
"'. c #923A2D",
"]. c #893C33",
"[. c #953E31",
"{. c #9E3E32",
"}. c #A53A2B",
"|. c #AF3E2F",
" X c #8B4438",
".X c #934437",
"XX c #9D4235",
"oX c #9D4539",
"OX c #AA402F",
"+X c #A24236",
"@X c #A34639",
"#X c #A7473B",
"$X c #AB4A3E",
"%X c #B74637",
"&X c #B34C3E",
"*X c #944E44",
"=X c #83524C",
"-X c #88534D",
";X c #8A544D",
":X c #98544B",
">X c #AA4F43",
",X c #AB5549",
"<X c #B75549",
"1X c #B75A4D",
"2X c #B66459",
"3X c #9C6760",
"4X c #C5594A",
"5X c #D55A4A",
"6X c #C25E51",
"7X c #C6665A",
"8X c #CB6A5E",
"9X c #D56F63",
"0X c #DC7164",
"qX c #D67468",
"wX c #7B827E",
"eX c #EE8375",
"rX c #788382",
"tX c #858584",
"yX c #848C89",
"uX c #8B8B8B",
"iX c #8F928F",
"pX c #939493",
"aX c #999C9B",
"sX c #A7ADAB",
"dX c #B6B6B6",
"fX c #EA9388",
"gX c #E99D92",
"hX c #F5B2A8",
"jX c #BAC0BF",
"kX c #FEC0B8",
"lX c #BAC3C1",
"zX c #C4C4C5",
"xX c #C4D1CF",
/* pixels */
"                                                            + + + = +                                                                                           ",
"                                                            .   . + + X                                                                                         ",
"                                                        X + D h.y.y.Z 2 &                                                                                       ",
"                                                        < h.U.aXtXY.K.J 2 o                                                                                     ",
"                                                        b pXrXD.D.H.I.J.H 3 X                                                                                   ",
"                                                        1 H.N.z.m.H.J.z.y.C >                                                                                   ",
"                                                        a :X:X:X*XM.A.v._.| 1                                                                                   ",
"                                                        1 =X;X;Xb.M.A.N.,X'.f                                                                                   ",
"                                                        a =X-X=X=XM.K.e.q.q.>                                                                                   ",
"                                                        1 =X=X=Xb.M.F.>.4.6.*                                                                                   ",
"                                                        d 3X3X=Xb.M.D.N.5X|.g                                                                                   ",
"                                                      . f 3X3X:X*XM.D.m.N.s.1                                                                                   ",
"                                                        1 n.m.v.n.l.l.p.t.j.Z X                                                                                 ",
"                                                        3 F.D.A.D.S.e.H.S.S.p.<                                                                                 ",
"                                                        2 m.n.0.D 9.0.s.>.>.>.d o                                                                               ",
"                                                        . 6 E ` X.K ` q W R K 8 - o                                                                             ",
"                                                        O 5 W X.+.u _ ! O.O.L q y o                                                                             ",
"                                                        X p ) ..| i ..~ +.3.W q q * o                                                                           ",
"                                                      o & u ! ) ( a ..U _ ..! % . $ O                                                                           ",
"                                                        X q ! &.| w +.| T ~ ! e * ; X o                                                                         ",
"                  & b b <                               * P p T W _ &.3.&.&.5.&.&...$ o                                                                         ",
"                  d uXI.x.D < o                         g <X!.@.*.*.%.&.%.&.T.%.@.#.L . o                                                                       ",
"                  o x.wXH.x.t.x > o o                   a %.[ Q Q Q Q Q W E Q P P Q L - +                                                                       ",
"                      D 0.1.6.4.1.T $ o                 < y.u.u.u.y.9.u.9.9.u.s.9.9.9.D =                                                                       ",
"                        _ W.~._.}.@.@     o             4 S.x.j.j.x.x.l.k.k.j.k.j.S.S.h.4 .                                                                     ",
"                        7 o._  .| p $ = O o             4 a.D D D J u.M S V Z D D i.a.g.D = o                                                                   ",
"                    o < z z 3 4 3 3 z , f t X           b wXG.z.a.J w.F G.U.3XrXH.y.Z M V n +                                                                   ",
"                    < y.a.r.D Z m b 3 a /.T.O           b iXI.G.z.J y.y.I.pXtXF.,.3 < < 4 b &                                                                   ",
"                  < a.l.l.h.a.a.i.a.c  .%X..o           < M M J F D y.G H C d 2 < 3 D u.z.D b n M b +                                                           ",
"                  J dXc.c.G.c.G.G.P.s.T.}.T o               < D M D G D d < n w.i.a.l.M.Y.Z 1 D J y.4                                                           ",
"                  b iXtXyXJ.S.D.S.P.k.o.X.&                 4 m 4 4 < 4 b 8.s.9.D m x x H >     o x ,                                                           ",
"                    X H.iXL.m.m.M.V.8.3 X         O & $ + & + X +   X M J D 3 o o . * t W p a ;.j s f a r g k r a * &                                           ",
"                        ( }.!./.!.#.P . o       O o 8 w q 8 8 6 s C 9.C z o : & y &._.@...K p ,X4X}.(.(.[.<X).! ! q q X                                         ",
"                        ) |.(._.`.`.R.i o o   o o _ 3.O.6.O.o.[ h e.J O o a 7.oXOX`.T . o M G a Y (.&XoX5X.X    . $ ; o o o o o                                 ",
"                        1 T W W U h i 1 O 4 3   w &X>XO.5.1.O.O.:.a 7 I ;.oX5X0X>XI   : > n l.x   j 0X0XXXy @ 7 $ X . . % % .   o o o                           ",
"                    . + o   + 1   : x 4 < D Z q _.4X^.R ` X._ ! 2.I w T.R.T.^.4X[.  o x.D   > ,   ..eX*X5 P +._ U U ~ | ! P u y q % o O o                       ",
"                  + B F b < V x b D J b M a.H j ~.'.O.~ O.X.Y K -.< 7 y e e = ( /.i + z < X o & q @.].I _ (...| +.X.(.'.^.5.*.&...P q . . o o                   ",
"                o Z h.J Z y.B i.l.a.G M y.a.w.C j k z M D < < b n V m n 4 o O   * [.(.0 # @ . 8 P | ' *.'.'.&._ &...o.&.&.o.5./.5.*.X._ Y 8 + o                 ",
"                  1 4   < n X n a.J D i.u.y.y.r.r.r.e.k.j.G H H J l.x.x.J +   o   h &X`.{ U L ! o.@.*.'.'.XX$X$X$X*.X.*.&.&..X+...&..././.Q P $ o               ",
"          + b y.w.Z F F 3 d n + n D l.G.h.l.l.l.l.a.i.l.i.y.z.H.I.I.U.Y.c.< + = o 9 $X7X6X1X<X<X>X,X7X7X7X8X8X0X9X@X[.@X'.(.>X(.O.*.&.oX$X(./.#.U * o           ",
"          X b y.J Z y.y.b b b o b b G.pXJ.I.Y.tXpXsXlXyXy.J G.pXdXdXxXzXZ.  I.z.  9 $X7X7X8X7X<X#X,X9XfXgXhXhXkXhX8X6X1X<X@X7X>X*./.&.XX<X.X(.%.W & o           ",
"                o Z.L.b 4 J d M i.M l.pXI.I.3XrXyXaXsXU.t.Z e.J.aXdXxXjXS.O j.r.  t %X4X&X+XXX(.^.*.%.2XfXgXgXgXgX2X>X,XoX@X8X.X+.&.! &./.O.U % o               ",
"                X c.I.i.Z u.F l.z.J M y.x.c.t.e.-.' L M D b 4 F x.S.c.c.c.J O . 1 ).(.6.&.&.&./.XX2.R %.$X6X'.!.+X(.^./.^.3.oX$X/.&.| ! w 8 & o                 ",
"                  + b D n b B M r.t.J 4 m p.H a T.}./.%.2.$.O.[ :. .{ O.2.+._ T.^.i + # . + O 1 Q.{.3.L ' #X/.'.'.^.+X+X+X'.3.T.@.P y .   O                     ",
"                    o + o o l , 1 D Z 3 = F m 8 ] >X7X*.@.O.[ O.}.`._.E._.{.1X0X[.  5 2XN.O o : * Q.qX*X6 W 3.O.O._ ..%.$...I 8 q % . o o                       ",
"                        r ^ } } Q Q U 1 o 4 3 + 5 &.1X.X,X>X X*.].4.4.=.&.%X0XfX<X6 @ iXaX:   :   ^ 0X0X).w @ % % a   . @ % X   o o o                           ",
"                        T E.T.T.T.T.] ; O .   o X U X.6.,X.X6.[ N v A A B -.7.XX%X(.i + , O o % ( 6.<X<X5X.X    X   $ o o o o .                                 ",
"                        i R W I w 8 X o o       o + 8 7 8 7 5 1 d C Z i.a.e.A N [ !.R.` R ( / .X|.{.'.{.XX$X^.T U L 8 o                                         ",
"                    + z.K.z.z.z.j.x.8.i $         o & X o + X : + X & n 9.z.p.H D k W [ [ h a j 9 ) ^ - * s h a r r &                                           ",
"                  b iXtXrXc.B.G.J.U.n.] ..$                 4 b 4 2 2 2 4 J c.G.f.r.y.a.c.2     o D b                                                           ",
"                  J sXtXaXI.J.H.H.P.s.!.}.T o               < D M D D D z = z a.c.H.K.P.yXZ < D J j.b                                                           ",
"                  < y.K.aXI.Z.G.k.a.x  .%X..o           < M M J D D i.F F Z z : < F a.d.z.D b M M b <                                                           ",
"                    > 9.y.w.Z C x b x a /.Q.X           m iXI.G.l.J y.y.I.pXtXF.J < & < < b =                                                                   ",
"                    . < z f t s t a z : f t O           b Y.G.c.l.J r.D G.U.Y.3XH.y.Z M B b X                                                                   ",
"                        i #.' [ ` P * + O o             4 a.D D D J u.M D B M D H i.h.a.D <                                                                     ",
"                      o p ] X.X.%.~ $ o                 4 M.z.a.l.l.z.l.a.j.j.j.j.x.G.h.d o                                                                     ",
"                      2 a 5 i t i * + o                 > t.f.t.p.t.t.f.e.r.u.u.u.9.i.D + o                                                                     ",
"                  + a.z.p.r.C > o o +                   1 7.:.-.=.=.=.=.=.) E R P E I - X                                                                       ",
"                  b uXU.c.J 4 o                         h &X!.@.T.T.@.%.$.*.R.$.O.@.K . o                                                                       ",
"                  + z b <                               & ! W ! U I $.3.%.2.3.$.&.X.5 o                                                                         ",
"                                                        o 5 _ X.2.i O._ U ) T U W p O o                                                                         ",
"                                                        X 8 ! o.o.p [ T _ [ o.q # % O                                                                           ",
"                                                      o + p ) _  .t | _ +.(.3.7 @ $ o                                                                           ",
"                                                        X w ~ [ T 9 [ P [ %.R # # X                                                                             ",
"                                                        & w P @.[ R { q w w 5 5 $ .                                                                             ",
"                                                        1 s.D >.>.>.<.s.>.D F 1 o                                                                               ",
"                                                        , t.t.e.A w.e.t.k.g.p.2                                                                                 ",
"                                                        < g g s s d Z + o > < .                                                                                 ",
"                                                        * 1. .) ( M C g P % +                                                                                   ",
"                                                        * ;.;.^ j B C N 3.I &                                                                                   ",
"                                                        * ;.^ j j B D + : 2 +                                                                                   ",
"                                                        * ;.^ ^ ^ M Z > > 2 o .                                                                                 ",
"                                                        1 ;.( } j M C k +.I &                                                                                   ",
"                                                        1 o.) ) ( M C 1 9 * +                                                                                   ",
"                                                        & N f f N M D 2 > : X .                                                                                 ",
"                                                        d S.e.Z Z D D G J 4 o                                                                                   ",
"                                                        4 l.J n M M M y.J X                                                                                     ",
"                                                          3 uXtXl.c.z.i.>                                                                                       ",
"                                                            H.uXz.S.l.<                                                                                         ",
"                                                              < < < X                                                                                           "
};
