/* XPM */
static char *_a429ff1eca34fa8d67aa850ff266a93Fu5sgkRv6QwHyrgC[] = {
/* columns rows colors chars-per-pixel */
"80 80 236 2 ",
"   c #000000",
".  c #0B0502",
"X  c #0C0906",
"o  c #020709",
"O  c #04090A",
"+  c #0B0B0B",
"@  c #140401",
"#  c #1B0501",
"$  c #140A06",
"%  c #1A0903",
"&  c #120C0B",
"*  c #1B0E0C",
"=  c #0C110E",
"-  c #15110C",
";  c #1C110E",
":  c #040F13",
">  c #0C1314",
",  c #081417",
"<  c #131414",
"1  c #1B1413",
"2  c #141718",
"3  c #141B1C",
"4  c #1B1B1B",
"5  c #230401",
"6  c #2C0600",
"7  c #250B03",
"8  c #2B0B02",
"9  c #240E0B",
"0  c #320703",
"q  c #320C02",
"w  c #3B0C02",
"e  c #291206",
"r  c #22120E",
"t  c #2D120C",
"y  c #331004",
"u  c #3E1105",
"i  c #35130C",
"p  c #3C140B",
"a  c #231412",
"s  c #2B1511",
"d  c #211D1C",
"f  c #2A1B19",
"g  c #331A16",
"h  c #361A17",
"j  c #3B1B14",
"k  c #39221D",
"l  c #101F23",
"z  c #1E2324",
"x  c #192628",
"c  c #1F2F31",
"v  c #1D373B",
"b  c #232323",
"n  c #262827",
"m  c #242A2B",
"M  c #2C2C2C",
"N  c #382725",
"B  c #302E2D",
"V  c #2B312F",
"C  c #272E31",
"Z  c #2C3233",
"A  c #283638",
"S  c #353030",
"D  c #343434",
"F  c #373736",
"G  c #343738",
"H  c #333B3C",
"J  c #3B3B3B",
"K  c #430E04",
"L  c #431206",
"P  c #4B1306",
"I  c #44130A",
"U  c #4C160B",
"Y  c #46180D",
"T  c #4D190D",
"R  c #531206",
"E  c #5A1406",
"W  c #54160B",
"Q  c #5B170A",
"!  c #54190D",
"~  c #5B1A0D",
"^  c #431B15",
"/  c #461C15",
"(  c #4B1A13",
")  c #521C12",
"_  c #5B1D11",
"`  c #66190C",
"'  c #631C0E",
"]  c #711D0D",
"[  c #641E11",
"{  c #6C1F11",
"}  c #47221C",
"|  c #5C2115",
" . c #59241B",
".. c #76200F",
"X. c #632115",
"o. c #6B2215",
"O. c #64241A",
"+. c #6C2519",
"@. c #6D291D",
"#. c #732416",
"$. c #792415",
"%. c #73261A",
"&. c #7A2719",
"*. c #74291D",
"=. c #7C2A1D",
"-. c #432623",
";. c #4A2823",
":. c #542A24",
">. c #53332D",
",. c #473935",
"<. c #423E3C",
"1. c #573D37",
"2. c #6C2C22",
"3. c #722D22",
"4. c #7C2D21",
"5. c #68342B",
"6. c #7D3226",
"7. c #78352A",
"8. c #643933",
"9. c #703E35",
"0. c #3F403F",
"q. c #48413E",
"w. c #56443E",
"e. c #2A3F41",
"r. c #363F40",
"t. c #374546",
"y. c #3C4344",
"u. c #3B4A4D",
"i. c #434343",
"p. c #4B4543",
"a. c #4B4847",
"s. c #444A4B",
"d. c #4C4C4C",
"f. c #544946",
"g. c #51524F",
"h. c #434E50",
"j. c #4B4F51",
"k. c #504F50",
"l. c #4B5253",
"z. c #485355",
"x. c #545353",
"c. c #595856",
"v. c #535B5B",
"b. c #5B5C5B",
"n. c #6D4D47",
"m. c #7C4E49",
"M. c #64524D",
"N. c #6A5956",
"B. c #645F5E",
"V. c #775D59",
"C. c #5F605F",
"Z. c #6A615D",
"A. c #555F61",
"S. c #605F60",
"D. c #4D6768",
"F. c #5A6364",
"G. c #596969",
"H. c #596D70",
"J. c #636463",
"K. c #656866",
"L. c #656A69",
"P. c #6B6B6B",
"I. c #726B6A",
"U. c #6A7575",
"Y. c #727472",
"T. c #767A79",
"R. c #7C7D7C",
"E. c #801E0D",
"W. c #83281A",
"Q. c #8A2B1D",
"!. c #992E1E",
"~. c #A2301F",
"^. c #812D21",
"/. c #8A2E21",
"(. c #922F21",
"). c #843226",
"_. c #8B3225",
"`. c #8C3629",
"'. c #88382C",
"]. c #953425",
"[. c #9A3729",
"{. c #923A2D",
"}. c #893C33",
"|. c #953E31",
" X c #9E3E32",
".X c #A53A2B",
"XX c #AF3E2F",
"oX c #8B4438",
"OX c #934437",
"+X c #9D4235",
"@X c #9D4539",
"#X c #AA402F",
"$X c #A24236",
"%X c #A34639",
"&X c #A7473B",
"*X c #AB4A3E",
"=X c #B74637",
"-X c #B34C3E",
";X c #944E44",
":X c #83524C",
">X c #88534D",
",X c #8A544D",
"<X c #98544B",
"1X c #AA4F43",
"2X c #AB5549",
"3X c #B75549",
"4X c #B75A4D",
"5X c #B66459",
"6X c #9C6760",
"7X c #C5594A",
"8X c #D55A4A",
"9X c #C25E51",
"0X c #C6665A",
"qX c #CB6A5E",
"wX c #D56F63",
"eX c #DC7164",
"rX c #D67468",
"tX c #7B827E",
"yX c #EE8375",
"uX c #788382",
"iX c #858584",
"pX c #848C89",
"aX c #8B8B8B",
"sX c #8F928F",
"dX c #939493",
"fX c #949594",
"gX c #999C9B",
"hX c #A7ADAB",
"jX c #B6B6B6",
"kX c #EA9388",
"lX c #E99D92",
"zX c #F0A094",
"xX c #F5B2A8",
"cX c #BAC3C1",
"vX c #C4C4C5",
"bX c #C4D1CF",
/* pixels */
"                                                                                                                                                                ",
"                                                                                                                                                                ",
"                                                                                                                                                                ",
"                                                                                                                                                                ",
"                                                                                                                                                                ",
"                                                                              o o                                                                               ",
"                                                                              * *                                                                               ",
"                                                                            o U U o                                                                             ",
"                                                                          o % &.%.% o o                                                                         ",
"                                                                          X P `.`.P X                                                                           ",
"                                                                        X 7 ~ `.+X+.8 X                                                                         ",
"                                                                      o o I _.*X3X_.w o o                                                                       ",
"                                                                      o . | ).@XOX%.W . o                                                                       ",
"                                                                    . o y X.O.=.&.! X.y   o                                                                     ",
"                                                                    o % P =.*.W.).3.%.P % X                                                                     ",
"                                                                    o q [ ).| o.=.%.).*.y o                                                                     ",
"                                                                  o o q *.).@.'.@X@X*X=.6 . o                                                                   ",
"                                                                  X . w 4.).|.1X0XqX$X=.L . o                                                                   ",
"                                                                  o % U 6.O.%.`.1X@X).{.X.% o                                                                   ",
"                                                                  o % T ).%.=.|.2X@X).$X+.% o                                                                   ",
"                                                                X O . [ {.%.=.@X4X3X).$X*.. X O                                                                 ",
"                                                              + 8 * . ~ {.X.o.|.9X1X).$X[ o X 6 *                                                               ",
"                                                              * w $ X U +.X.=.%XqX5X`.^.| r o w r                                                               ",
"                                                              r W X X P @.*.*XwXxXlX%X{.+.% . P *                                                               ",
"                                                              s W o 7 ) | | *XwXxXlX`.}.+.%   W r                                                               ",
"                                                              k '.  @ %.X.*.-XqXxXkX|.`.=.@ o 4.h                                                               ",
"                                                              g 3X@Xy P `.{.+XqXxXlX9X&XW w OX1Xs                                                               ",
"                                                              ; {.7X@X5 _ {.{.0XzXkX*X[ 0 `.8X+X;                                                               ",
"                                                              r _.+XrX;XI &.{.0XkX5X#.I @XeX3X|.*     o                                                         ",
"                                                        + d , f `.-XeXyX}.' =.0XwX&.R 4.rXeX3X|.^ z b +                                                         ",
"                                                      o b i.x s  X`.^ X.%.| %.2X4X=.3.[.).^ 7. X) G j.n o                                                       ",
"                                                        M J o i 7XY     q P X.1X%X).$X^.* o / #X7 o F M                                                         ",
"                                                      o n D   >.2Xr x 3 + q W 3X3X_./.1 : , % OXj o F b                                                         ",
"                                                    O + n 2   a p G x.X o . K 3XqX X%.: o   o / a   < n < + o                                                   ",
"                                            o o X < M b F M > p L m m o X @ U 9XqX X*.X o O O ( i , B F d n > .                                                 ",
"                                          o O & 4 F M 4 c.R.G Q X.o = F 2 # o.4X0X1X4.. I.fX, W X.Z.pXc.< M F 4 + + o                                           ",
"                                      . o . & F d.d.B < a.A.l t #.. : v.z 0 [.0X0X7X6.@ 9XfXO ` ' d.U.x.> M d.d.G & . o o                                       ",
"                                  o O O $ L L p.J.j.M < F x.l s (.Y o O + _.-X&X%X-X`.+ 5 . i Q.W J P.d.+ D l.K.a.L K % O o X                                   ",
"                              o X * $ ; O.$.Q p.v.a.i.4 4 j.m . %.{.K   p {.j 9 9 i '.i   6 ]./.k t.K.F < i.d.v.p.E #.o.p @ $ X o                               ",
"                            o - e q . * &.#.P p.l.F K.r.* s.G o y XX1X|.).* o o     1 ).|.3X#X[ S z.b.< J K.F l.p.P +.*.~ # @ # % o                             ",
"                      o o < a y q 0 7 7 *.&.P p.j.D R.J.2 r.<.O % @XeX7X( o o & b.y.  %.yXkX#XN t.B.d.> J.R.F l.p.R %.%.U q 7 # 5 1 < . o     . o               ",
"        + < - f > * i 1 Z h.,.w L ! ! ! 4.^.Q p.l.F R.iXd n a.< O 8.8X).& O   o Y.l.o ~ 9XeX9.A d.b.z d iXR.S l.p.E ^.4.! X.=.U 5 F s.< o & O o $ & O X         ",
"        3 C | }.e.9.XXf.z.F.,.R +.4.X.~ *.=.Q <.j.M T.sXB < r.F : a @X=.9 O + <   o J @. X=X:.e.x.J + B dXT.B k.q.) =.*.! X.`.=.w ,.j., 7 K 2 < I 9 : 4 +       ",
"    + 4 H y.].4XA 7.8XV.u.F.,.R %.+.) T *.&.~ <.j.B J.Y.J d n J b o :.Q.t 3 J b.B.F.b.3.(.3.B s.i.4 d J Y.J.B d.t.N =.*.T _ +.[ w <.h.o P 4., , +.t : J J <     ",
"  X 2 J K.c.n.V.y.,.V.N.d.L.f.q ! ~ U _ 4.=.Q a.v.M F i.F D 4 M M O I =.e m c.R.vXcXb.+.!.} A s.n 1 D F i.F M x.s.-.&.^._ P | U 6 f.h.+ g N + > k 1 3 F i.i.<   ",
"+ = S P.Y.K.D.D.P.H.D.G.j.y.w.' _ | O.*.*.%.Q <.v.i.J i.i.F 1 O y.J 7 w e m v.T.vXbXb.' .X>.A F + 2 F i.i.J i.v.u.-.&.*.O.X.| X.{ 1.H D C c F M c C B F M b.x.O ",
"+ + i.R.K.J.Z.B.B.B.B.B.x.A.<.K I y a w ! W.Q q.v.J J J F D 1   Z t.; u ; C g.Y.jXcXJ. .~.8.v m + < F G J J J x.u.;.W.p i I t t R 1.H d n B B B M B S Z M b.J.< ",
"X o i.iXG.N.;Xm.:Xm.m.;XN.G.,.o.@.| ( | ) =.Q p.l.F j.x.F M 3 & s j >.7.} m J Y.jXgXv.>..X}.N d + 1 M F c.k.F k.u.;.&.U 3.O.) T ` ,.e.a ( j j ^ j ^ N Z M x.c.< ",
"+   k.gXG.M.<X,X>XV.:X<XM.D.w.` o.X._ 3.T #.Q p.l.D c.J.J F b + 6 [ +.! I b G L.dXL.H X.+.=.{ 1 : n G F C.b.F d.s.-.#.! X.o._ X.o.,.e.f ) ^ ^ ^ / ) f Z n iXaX- ",
"O X F T.uXV.<X,X>X>X6X6XN.D.M.E ! ! ! U p /.{ p.v.F J.Y.M 2 4 O 6 O.O.[ Y + G c.K.J 4 o.X.oX7.5 X 3 1 M Y.J.F x.u.>.Q.Q _ ! ! ! R J t.g :.;./ ^ / ) f y.J iXJ.o ",
"    & d.dXJ.;X:X>X>X6X5XN.G.N.0 5 u L q U 3X&.<.F.d.R.sXM     $ 8 @.2.o.o.1 G i.0.V b %.+.1XOX# O   o M sXR.d.B.u.8.3XU 6 8 p w w f.u.h 3.:.:.:.:.O.N A.c.4     ",
"    X < b 1 d 1 1 1 4 d 1 4 4   o + X X * f r < 4 4 b b <     + q 6.6._ +.F h.d.q.u.H *.o.2X4Xq o     < M b 4 4 > 1 g * o O X X $ < 3 & r ; * ; * * < d 4       ",
"                              o     o                         $ w +.+.W _ M l.c.pXT.M %.=.OX7.5 X                       o     o                 o               ",
"                                                            o & 8 4.*X).+.x y.a.cXhXw _.0X4Xo.7 &                                                               ",
"                                                              o o X.-X7X].k y.l.hXgX` .X1X*.P & O                                                               ",
"                                                                o o w ].].j t.l.dXpX;.W.] 6 O o                                                                 ",
"                                                                  o o q k m s.l.iXuXZ g 6 X O                                                                   ",
"                                                  . O o o O         3 C H q.i.g.R.tXd.H c 3         o o O X o                                                   ",
"                                                  o t 4.X.T &     o 1 F a.d.i.x.Y.Y.b.a.F 4       & U X.=.i o                                                   ",
"                                                  O f (.=X.Xo.O o o O < M i.a.g.L.Y.c.m = O O o $ o..X=X_.f O                                                   ",
"                                              o o + 3 1 O.W.+.3 . i ; 3 d M a.J.dXsXi.4 3 - r o i E.W.2.; , = o X                                               ",
"                                            o $ @ $ z 3 x f.z.J P Q.j l H F J j.J.x.M J Z T ] X e.n.f.x l z * @ + O                                             ",
"                                            o U ..p 3 z d.U.T.J.$.[.g : J a.i.D n M J s.F ` W.7 v.uXU.s.z a P ~ * o                                             ",
"                                            , 2..X .3 b s.J.F.N./.[.T   z x.a.b b i.c.y.< W W.w j.L.J.j.m t [ &.y O                                             ",
"                                          o z 5.].| 3 Z d.J.F.N._.].W < x a.M o o M x.M , ;.W.K x.F.P.C.M s X.o.t > o                                           ",
"                                          3 s.9.!.) z Z d.b.F.B./.[.U & Z M + b b b F B l ^ W.W c.F.P.B.Z t ` o.t M 4                                           ",
"                                          Z A.3..XX.z J g.S.G.I.[.XXT   2 i.n b n J i.b o / (.W c.C.T.T.H f #...7 y.J                                           ",
"                                        < x.L.1.Q 7 b l.x.S.iXdX( ) a o b B < 1 b 4 S b o s ( y K.tXgXfXi.z i p a s.b.2                                         ",
"                                        b Y.uXZ     2 p.g.S.iXK.    o O G J . F i.d i.F + o     c.aXiXP.y.2   o 2 c.T.b                                         ",
"                                        d aXc.        = d.jXsX.       X M k.3 F i.Y.Y.b X       + aXhXq.<         k.aXd                                         ",
"                                        + d X         o < J b           + M 4 M M B.b.O           b J 2           O b +                                         ",
"                                        o                                 o   <.J o +                                                                           ",
"                                                                              i.i.                                                                              ",
"                                                                              b b                                                                               ",
"                                                                              O O                                                                               ",
"                                                                                                                                                                ",
"                                                                                                                                                                ",
"                                                                                                                                                                ",
"                                                                                                                                                                ",
"                                                                                                                                                                "
};
