/* XPM */
static char *_8f5a29c0e8a4f489d886e1de0f4cd5efn2eoNLyNJinHATk[] = {
/* columns rows colors chars-per-pixel */
"80 80 250 2 ",
"   c #000000",
".  c #03060D",
"X  c #03080E",
"o  c #09110F",
"O  c #010612",
"+  c #040A14",
"@  c #04091A",
"#  c #040C1A",
"$  c #04111C",
"%  c #09131C",
"&  c #040B28",
"*  c #051324",
"=  c #0A1424",
"-  c #05142A",
";  c #0A152A",
":  c #081A29",
">  c #0A1B2B",
",  c #111C27",
"<  c #080C36",
"1  c #071637",
"2  c #0C1C34",
"3  c #0C1C3C",
"4  c #121E39",
"5  c #0B222E",
"6  c #13242C",
"7  c #1B282C",
"8  c #0C2334",
"9  c #08243A",
"0  c #0C233C",
"q  c #0D2A3D",
"w  c #162936",
"e  c #12233B",
"r  c #1B2D3B",
"t  c #18303C",
"y  c #1D323C",
"u  c #252D2C",
"i  c #212C33",
"p  c #252D3A",
"a  c #25333A",
"s  c #303636",
"d  c #070D47",
"f  c #0D1344",
"g  c #0E1C44",
"h  c #0D144B",
"j  c #061B48",
"k  c #141949",
"l  c #0F1453",
"z  c #071855",
"x  c #0E155A",
"c  c #111653",
"v  c #121B54",
"b  c #1A1D56",
"n  c #11165C",
"m  c #131A5C",
"M  c #0B2343",
"N  c #0B2B44",
"B  c #08274A",
"V  c #132343",
"C  c #142C44",
"Z  c #1A2847",
"A  c #13234C",
"S  c #142A4B",
"D  c #0E3248",
"F  c #133346",
"G  c #1B3443",
"H  c #14334B",
"J  c #1A364B",
"K  c #15394D",
"L  c #0A2C54",
"P  c #052A58",
"I  c #142C54",
"U  c #192758",
"Y  c #0C3354",
"T  c #07375D",
"R  c #0A335C",
"E  c #1A3453",
"W  c #143A52",
"Q  c #173858",
"!  c #222B48",
"~  c #263946",
"^  c #243B4B",
"/  c #353D43",
"(  c #252658",
")  c #223C53",
"_  c #223A58",
"`  c #0B1561",
"'  c #111662",
"]  c #131964",
"[  c #131B6B",
"{  c #171A69",
"}  c #151C73",
"|  c #14187A",
" . c #151E7B",
".. c #052A6A",
"X. c #1A2866",
"o. c #1C246C",
"O. c #0B3866",
"+. c #1B3264",
"@. c #173A68",
"#. c #012D7E",
"$. c #1A2678",
"%. c #093A75",
"&. c #1B3776",
"*. c #22346A",
"=. c #1B4258",
"-. c #2D414C",
";. c #374348",
":. c #2C4352",
">. c #28445A",
",. c #364A58",
"<. c #3E5059",
"1. c #0F446D",
"2. c #194668",
"3. c #0B447A",
"4. c #174976",
"5. c #1B5379",
"6. c #264A66",
"7. c #354D65",
"8. c #2B546C",
"9. c #3B5464",
"0. c #37556A",
"q. c #264B78",
"w. c #285778",
"e. c #365B75",
"r. c #3C657B",
"t. c #475154",
"y. c #455B68",
"u. c #435D76",
"i. c #59666B",
"p. c #486779",
"a. c #536975",
"s. c #576D78",
"d. c #6A7477",
"f. c #86847E",
"g. c #161E82",
"h. c #181E8D",
"j. c #191F92",
"k. c #1A2385",
"l. c #182687",
"z. c #1A238C",
"x. c #013787",
"c. c #1A3484",
"v. c #1A2393",
"b. c #192594",
"n. c #1B259B",
"m. c #242B96",
"M. c #1D26A2",
"N. c #0B488A",
"B. c #144B87",
"V. c #12548D",
"C. c #185789",
"Z. c #084B95",
"A. c #105498",
"S. c #185B99",
"D. c #274987",
"F. c #255986",
"G. c #345982",
"H. c #214493",
"J. c #245C96",
"K. c #1C618E",
"L. c #1C6496",
"P. c #296689",
"I. c #386885",
"U. c #266597",
"Y. c #356C96",
"T. c #2D7296",
"R. c #3A7698",
"E. c #0B55A7",
"W. c #155BA5",
"Q. c #0A59B2",
"!. c #265EA4",
"~. c #1867AB",
"^. c #116BB4",
"/. c #196AB8",
"(. c #1A74B7",
"). c #2869A5",
"_. c #2976AB",
"`. c #3777A6",
"'. c #2B6EB2",
"]. c #2976B8",
"[. c #367DB7",
"{. c #466B88",
"}. c #566F88",
"|. c #48738A",
" X c #577789",
".X c #467997",
"XX c #567D95",
"oX c #657C87",
"OX c #467AA6",
"+X c #0F71CA",
"@X c #1A79C8",
"#X c #257CC6",
"$X c #307DCE",
"%X c #1C82BF",
"&X c #3481AE",
"*X c #3887B8",
"=X c #4A819C",
"-X c #5A849C",
";X c #6A838E",
":X c #788589",
">X c #678798",
",X c #738A96",
"<X c #7C939B",
"1X c #4C84A3",
"2X c #4986A8",
"3X c #538AA4",
"4X c #588AA7",
"5X c #5A91AD",
"6X c #498CB4",
"7X c #558EB2",
"8X c #4991BA",
"9X c #5795B6",
"0X c #648CA2",
"qX c #6694A9",
"wX c #749AAC",
"eX c #6499B5",
"rX c #71A3BB",
"tX c #1C8AD5",
"yX c #2786C8",
"uX c #3588C8",
"iX c #338FD3",
"pX c #2993D9",
"aX c #3798D4",
"sX c #1691EA",
"dX c #2B99E5",
"fX c #3C9BE0",
"gX c #3AA7E8",
"hX c #33B1FA",
"jX c #4999C9",
"kX c #559BC7",
"lX c #4C96D2",
"zX c #489CD7",
"xX c #54A6CB",
"cX c #48A9DC",
"vX c #5BABD4",
"bX c #66A8C8",
"nX c #73AAC3",
"mX c #77B8D7",
"MX c #57ADE6",
"NX c #4CB2EC",
"BX c #39C0FF",
"VX c #55C1F3",
"CX c #6DC9EE",
"ZX c #6CD9F4",
"AX c #889292",
"SX c #8EA5B3",
"DX c #89B7CB",
"FX c #96C7DB",
"GX c #95D6EB",
"HX c #C6F8FF",
/* pixels */
"                                                                                                                                                                ",
"                                                                                                                                                                ",
"                                                                                                                                                                ",
"                                                                                                                                                                ",
"                                                                                                                                                                ",
"                                                                                                                                                                ",
"                                                                                                                                                                ",
"                                                                                                                                                                ",
"                                                                                                                                                                ",
"                                                                    = V U Q @.*._ +._ Q S =                                                                     ",
"                                                              + 2 I *.q.e.9.^ ^ w Z Z Q *.+.I 0 +                                                               ",
"                                                        X e *.G.{.d.s.i.i.a / y 6 7 w o % , Z +.&.@.V .                                                         ",
"                                                    + A q.{.oX:X:X:XoXd.0.a -.t p a t w w 7 o > k { $.&.S X                                                     ",
"                                                . V G.XX0X<X<X>X;XoX}.r.0.y.7.t w ^ ! r , 6 6 6 e Z { ] ] X.Z .                                                 ",
"                                              ; q.-XeXqXwXAXXX>X>X|.p.e.a.i.u.0.>.^ / ~ y i i 7 6 e A $.m.' U +.2                                               ",
"                                            S .XrXrX5X4X0X>X0X>XI.p.p.s.a.9.9.9.>.) ^ / / y p i u p 4 U X.h.n.{ I Z                                             ",
"                                        X @.1XnXnX6X2X>X5X3X4X.Xp. Xs.}.u.p.>.C J C ^ ~ y a y p i w 4 - 4 [ v.v.| $.*.o                                         ",
"                                      % D.OXbX8X2X5XqXqX5X4X-XI.AX,X|.p.7.0.9.Z ~ y w G , 6 y 2 > 7 r 4 k v $.h.z.| l.D.%                                       ",
"                                    + D.2XbXbX*X5XwX0X5X4X2XI.5.|.,X{.0.Q >.y.t.;.) Z :.J G 8 w r 6 7 Z U ] [ z.z.[ | b.D.+                                     ",
"                                  + &.U.6XrX7X1X4X=X=X.X1X6XG.O.P. Xp.0.0.0.9.,.~ ) 6.^ D :.C G t ; $ 1 Z X.$. .g.[ | [ $.H.+                                   ",
"                                  &.J.6XeX1X1X=X.X.X=X1X1X1X1X{.p.u.u.y.9.y.7.) _ >.Z q J N G ~ 8 2 * > 2 X.[  .g.n { } { $.&.                                  ",
"                                I &..XXXI.`.R.R.|.R.=X4X0X-XY.}.oXp.y.y.y._ ~ V Z I S J J 2 J K w ~ 6 6 = 1 ! { } m ] { { o.$.(                                 ",
"                              4 F.w.<.6.P.&XR..X.X4XwX0X3X|.9.G.}.s.@.0.7.7.! , w ^ e > 0 F 8 % * q 7 $ = 3 ( f n { ] n f o.m *.e                               ",
"                            . J.[.`.G.T.6XR.R.qXSXSXqXOX4XXX XXXAX|.O.+.p.8.I I I 6 8 0 8 > % % $ * > : : 4 Z 3 < ] | ' b m c k &..                             ",
"                            I [.uX8XkX4XqX4X7XeXSX5X6X5X3XkX|.e.0X{.|.r.I.p.8.Q I C Z e 2 e S e : > * % 2 2 2 k k ] | ' { v { n b E                             ",
"                          @ `.mXnXkXDXnXkXaXjXFXkX(.6X4X_.[.@.F.7XY.0X.XR.I.w._ 8.Q 0 8 0 8 8 = 8 * * $ # V 3 b [ [ { n { b f ` b *.*                           ",
"                          _ jXgXgXgXlXyXaXaXxXFXjX7X&X6X8XC.U.Y.D.Y.3X4X|.2.@.I.2.S M N 2 : O $ - $ X X + = 3 f m } ' = f o.( ( b h Q                           ",
"                        + ).dXhX@X/.NXMXlXiXCXcXaXjX_.`.9XS.%.%.F.C.%.F.C.w.w.1.C E O.N 0 H J 8 : : O . X O @ & & < h b < k ( ( { ' &.@                         ",
"                        S iXhXyX..uX*XiXuX].aXtXgXNXaXjX).w.C.J.U.%.1 R B.J..X8.S E D 3 L D D D q : - O   @ = 4 k   & b k f b h ] | m Z                         ",
"                        D.NX$XA.dXhX+Xx.Z.V.T.@XZ.&XNX_.3.~.Y.&X~.A.*   3 5.P.6.I N B O.B - q =.0   $ # . = < k f k ( @ k { < < | d f &.                        ",
"                      ; ].N.B.#XpXsX].+ & X.J.&.d ..C.O.C.S.%.5.C._.L : R C.O.j 1.2.T 1.Q Y W Y - # + X + @ = < & ( { n c ( ( d } l ` &.;                       ",
"                      S /.Q.!.).tXyXj %.C.B./.kXB.1 N 3.C.U.V.3.j 2.2.L U.F.F.R 1 R N 6.O.W =.=.D : # X . . . < < < f b b < < h ' { ' o.S                       ",
"                      &.@XE.#XpXtX4...aXMXZ.fXMXZ.. * 4.@.4.).O.1 Q P.3 - Q 2.w.5.B =.w.w.2.=.K K 9 $ $ . # - @ k m l h l h & l ] ' n [ +.                      ",
"                    . &.Z.W.uX+X@X@XdXiXlXNXY.!.2.& %.Y.3 Y ~.0 1.N.B 4.B.C.%.1 5.w.5.=.6.e.8.=.9 : q : * O O @ & l b k c m < h { ' ] ] &..                     ",
"                    = J.$XiX/./.dX$X+X3.#.'.2.6XQ = 4.uX5.P.%.R U.%.%.P N.B 1.B 1 K.5.W 5 G =.Y 9 5 9 $ @ @ + < O < x c { < < f | } [ x o.;                     ",
"                    k #XgX'.+X@XdXZX@XS.*X_.A.Z.j I L.#XlXzX@.* 2 3 O.V.1.V.4...O.B 8.e.Y 1 D N q D $ $ % = 4 & . k h < f b f n [  .] x $.H                     ",
"                    @.zX].yXdXpXdXiXB.NXZXpXZ.Z.P O.B B B.4 Q R #   8 %XC.P.K.3.L 2.w.6.B $ 5 1 1 F w # % - ; @ f f < h h c c ' [ } m ] $.U                     ",
"                    q.zX/.Q.tXyX@X$X#X+X/.vXF.W.W.1.J @ @ 4.).4.- Y C.Y 1.5.4.P 4.5.Y 1.Q $ * + * : X O * * O * & d n { f c { | } [ n ] n +.                    ",
"                    G.NXx.W.E.@XNXZXsXQ.$.H.OXR %._ J.C.w.J.O.=.O.B.Y T 3.T 1 1 H > Y @.D N M # $ O . O + O # & f n { n n n {  .{ x x ' x +.                    ",
"                    F.NXA.^.%.N.hXpX#X@X/.x.z = O ).).j C.3.& $ B P N.A.N...P B ; N B 0 H 8 * + * # $ * O 2 A h n n ' { [ { { ' ' ` ] ' ] +.                    ",
"                    F.J.B.@XB.B.+XQ.!.#XdXlXF.).N.%.& ..z < 5.1.C.(.A.L.V.V.3.1.1.T < 9 Y B # # - 9 8 5 e A A h n ' n [ } { } [ } } ] ' } X.                    ",
"                    q.'...~.BX_...@X#X/.$XbXuX..3.A.OX8X.XR.cX*XK.~.L.V.V.K.5.1.1.P B P B N P 1 9 9 5 , 4 g 1 h ] ] { } { ] } ] { } ` ' o.U                     ",
"                    Z #X].tXsXS.E.Q.E.x.` Q.^.%.N.mXHXcXvXvX_.N.V.K.V.V.5.3.5.W O.O.P L Y Y 9 q M 9 5 2 V 3 3 l m ] { ] ' [ [ } | } ` [ $.E                     ",
"                    2 [.cX/...B.@XE.#XyXlX@XCXCX(.DXmX*X_._._.V.K.L.5.5.I.5.O.P 1.R T L Y Y 9 q 9 5 5 2 3 3 f v ' ' n ' [ [ } } [ [ | ' $.0                     ",
"                    + J.'.W.B.x.A.cXgXE.lXNXFXCXvXbXbXrX2X&XT.T.T.K.1.=.I.P.2.1.%.B T 1.K D q 9 9 w 6 w 3 g c ] ' l n ' ' }  .[ [  .$.[ *.#                     ",
"                      q.OX#X/.x.#XVX^.#.Q.GXFXvXcXrX9X8X6X`.T.T.T.5.w.I.w.5.e.5.P & D 2.=.=.=.F q 6 6 8 3 g h c x m n l x } m ] ' [ }  .&.                      ",
"                      U [.[.~.@XgXE.#.N.+XNXmXjXjX*X&X6X5X3X3XT.T.r.P.5.1.6.6.8.2.=.6.>.=.=.q q 6 5 > 2 3 h c x n ' n x ] x x $.' [ | { I                       ",
"                      4 J.lXcX@XcXuXuXaXpX^.uX8X9X9X8X6X2X3X=XR.T.P.5.4.2.1.2.=.=.2.=.=.D =.t 9 5 : 8 3 g U ] n [ n ' ' ] c ]  .$.[ [ $.4                       ",
"                      + D.zXvX[.@XGXGXFXMXbX].&X9XeX5X=X3X=X=XT.K.K.w.w.6.2.2.T =.Y D =.F =.q t 5 9 8 g j X.x [ ' ' ' x h l ] [ } [ ' &.+                       ",
"                        Q xXmXzXuXmXmXbXbXxXnXeX6X3X`.=X=XR.L.K.5.w.w.w.w.6.O.2.T D =.N F G q q > - 0 A X.x [ } n x m ' ] } } ] m | { I                         ",
"                        ; 9XmXuXkXkX%XxXbXkXrX5X6XqX1X3X=XR.P.P.r.8.7.>.=.2.6.Q Y =.q D t F t q 8 1 g A U [ } ] } [ v [ [ ] k.z.[ | c.2                         ",
"                          w.nXrX_.].&XeXeXqXqX2X5XrXqX=X=XR.|.s.r.w.7._ =.=.J Q D D =.q =.q t 6 8 V M v v ` [ } [ [ x ' [ [ '  .g.| &.                          ",
"                          3 `.DX.XA.*XeX5XqXqX`.5XwX0XR.Y. X;Xp.r.e.6.=.>.) Y J D K N D D q 5 6 8 q j U [ ' |  .[ n x x [ ' '  .g.$.e                           ",
"                            @.1XqXU._.5X4XOX3XXX4X>X.X.XR.;Xs.p.y.7.>.>.>.E E W K K D F q q 5 8 3 M A m ] [ }  .} ] } [ v [ z. . .+.                            ",
"                            - F.7X5XOXXX>XXX,X,X>XXX|. X-XI.r.e.7.6.,.>.E J Q C N K D N q w 5 2 M A h ` [ }  .k.g.[ [ ] [  . .} $.>                             ",
"                              I .X5X9X4X>X,XXXXX,X,X;X-Xd.r.p.e.>.>.>.>.>.:.-.F G ~ G t q w 6 0 V h U $.h. .k.g.} [ [ ' } k.g.$.I                               ",
"                              O q.wX0X1X-X-XXXXX<X;X=X X;Xr.r.0.0.,.=.,.,.:.:.J J ~ ~ y t 7 w Z j U $.|  .z.z.[ } $.[ [  .g.g.&.X                               ",
"                                @ {.qX>X;X>X,XoX XoX=X=X=Xr.e.9.0.9.>.>.>.:.-.-.~ G y y u 7 Z U X.o. .}  . .} }  . . . .g. .c.@                                 ",
"                                  3 .XAX,XXX,X:X;X;X;X;X Xr.p.p.y.,.>.,.-.-.K -.~ a r 7 7 G U X.o.$.g.k.z. . .k.} k. . .z.$.3                                   ",
"                                    3 }.AX:X XoX;Xp.|.|.s.d.i.r.y.9.,.,.:.=.~ ~ ~ y i 7 r ! ( o.$.h.h.v.z.z.k.}  .|  .h.c.e                                     ",
"                                      V a.AX:X;X X;Xp.r.8.p.a.0.9.t.,.:.-.-.J t y i u i ! ( X.$.z.n.z.b.v.z. . . .| v.c.V                                       ",
"                                        1 u.f.d.s.s.s.r.0.e.9.y.6.<.<.:.J ~ ~ t y 7 r ! U *.$.z.M.n.b.n.z.z.z.v.j.n.c.8                                         ",
"                                          - 7.d.d.d.p.a.i.9.,.,.,.:.;.;.-.J y y u i w ( U o.z.n.b.n.n.v.n.n.j.j.z.*.;                                           ",
"                                            X F i.i.i.i.<.y.9.:.;.<.;./ ;.s u 7 i ! ( U o.m.M.b.b.b.M.M.n.v.h.c.U +                                             ",
"                                                2 *.y.t.t.t.;./ ^ ;.t./ s u u i ! ! U o.z.M.M.n.n.n.M.M.M.k.&.2                                                 ",
"                                                  . e _ t.t.s t./ s s u u i ! ~ ( X.$.z.b.n.n.n.M.M.M.z.&.V X                                                   ",
"                                                      + 4 I ^ / s u u u p ! ( ( o.$.v.n.n.n.M.n.b.c.+.3 +                                                       ",
"                                                            = g Z _ ! A b o.$.k.z.j.j.v.h.l.c.U V % .                                                           ",
"                                                                  # ; A Q &.c.l.z.c.&.Q A ; @                                                                   ",
"                                                                    . = 2 M A A A A V 2 % .                                                                     ",
"                                                                                                                                                                ",
"                                                                                                                                                                ",
"                                                                                                                                                                ",
"                                                                                                                                                                ",
"                                                                                                                                                                ",
"                                                                                                                                                                ",
"                                                                                                                                                                ",
"                                                                                                                                                                ",
"                                                                                                                                                                ",
"                                                                                                                                                                "
};
