/* XPM */
static char *_2eb6bcad23540f9c42f35819e3577b8ufYqJF4QnXj5fUY2[] = {
/* columns rows colors chars-per-pixel */
"80 80 152 2 ",
"   c #000000",
".  c #040906",
"X  c #070708",
"o  c #080708",
"O  c #060A09",
"+  c #0B0D0C",
"@  c #0E100F",
"#  c #10120F",
"$  c #100F10",
"%  c #0F1111",
"&  c #141414",
"*  c #181717",
"=  c #151817",
"-  c #161819",
";  c #1B1C1C",
":  c #201E1F",
">  c #1F1E20",
",  c #1F2020",
"<  c #242424",
"1  c #292625",
"2  c #262729",
"3  c #282728",
"4  c #2C2C2C",
"5  c #302F2F",
"6  c #2F302F",
"7  c #2C2D30",
"8  c #302F30",
"9  c #2F3335",
"0  c #2F363C",
"q  c #343434",
"w  c #373837",
"e  c #393837",
"r  c #353739",
"t  c #383738",
"y  c #34393C",
"u  c #3B3B3B",
"i  c #403F3F",
"p  c #3F403F",
"a  c #41413E",
"s  c #343E44",
"d  c #3C3E40",
"f  c #403F40",
"g  c #3C4144",
"h  c #3A4349",
"j  c #444444",
"k  c #484746",
"l  c #464846",
"z  c #484846",
"x  c #484748",
"c  c #43494D",
"v  c #4B4B4B",
"b  c #504E4E",
"n  c #4F514F",
"m  c #51504F",
"M  c #4F4E50",
"N  c #504F50",
"B  c #4E5152",
"V  c #535353",
"C  c #595757",
"Z  c #565956",
"A  c #595957",
"S  c #585758",
"D  c #565959",
"F  c #5B5C5B",
"G  c #615F5F",
"H  c #5E615E",
"J  c #62625E",
"K  c #605F60",
"L  c #5F6261",
"P  c #626462",
"I  c #686767",
"U  c #666A66",
"Y  c #686A67",
"T  c #686768",
"R  c #656B6A",
"E  c #696D69",
"W  c #6A6D6A",
"Q  c #6B6E6B",
"!  c #6C6D6C",
"~  c #6D716D",
"^  c #6D726D",
"/  c #71736F",
"(  c #686E70",
")  c #706F70",
"_  c #6C7371",
"`  c #737373",
"'  c #717571",
"]  c #737473",
"[  c #767676",
"{  c #767976",
"}  c #787778",
"|  c #767A7B",
" . c #787878",
".. c #7B7A7B",
"X. c #7B7C7B",
"o. c #7C7C7C",
"O. c #7E7E7E",
"+. c #817F7F",
"@. c #7F817F",
"#. c #7B7E81",
"$. c #807F80",
"%. c #7F8182",
"&. c #818181",
"*. c #838383",
"=. c #868986",
"-. c #898987",
";. c #84868A",
":. c #888788",
">. c #8B8C8B",
",. c #8E8E8E",
"<. c #8E918E",
"1. c #90908F",
"2. c #8B8D90",
"3. c #908E90",
"4. c #8E9190",
"5. c #919291",
"6. c #939393",
"7. c #989796",
"8. c #969996",
"9. c #96989A",
"0. c #9A9C9A",
"q. c #9EA19E",
"w. c #9EA29E",
"e. c #A1A19F",
"r. c #979BA2",
"t. c #A0A3A0",
"y. c #A2A5A2",
"u. c #A6AAA6",
"i. c #ABACAB",
"p. c #ADB1AD",
"a. c #B0B4AF",
"s. c #B0AFB0",
"d. c #AFB2B4",
"f. c #B3B4B3",
"g. c #B6BAB6",
"h. c #B9B8B7",
"j. c #BABCBA",
"k. c #BEC1BE",
"l. c #BCBFC0",
"z. c #BEC0C3",
"x. c #C3C4C3",
"c. c #C7C9C7",
"v. c #CBCBCC",
"b. c #C9CFD1",
"n. c #D0CED0",
"m. c #D4D4D4",
"M. c #DBDBDB",
"N. c #DEE0DE",
"B. c #E3E2E3",
"V. c #ECEBEC",
"C. c #EFEFF0",
"Z. c #F5F6F5",
/* pixels */
"                                                                        . X + + + o .                                                                           ",
"                                                                      o < 6 6 4 9 4 ; . . .                                                                     ",
"                                                                    + 5 j v B k x N u 4 3 < % . o .                                                             ",
"                                                                  @ e V F U F Z H E U P V j q < , < ; + .                                                       ",
"                                                                $ e v D Y [ [ E U ^ ' ^ P V j q q w 0 4 1 O                                                     ",
"                                                              @ q Z S P [ ....' U U ^ U P Z u q q r g j p < +                                                   ",
"                                                              - k I ` { ..&...! U U Q E K V u q 4 e F J l w -                                                   ",
"                                                            & e F ..&.[ } 8.5.[ Q U E Y K V u 4 4 v / { U v 4 +                                                 ",
"                                                          * u I o.o.| ` &.y.q.$.! P ^ U K C u 3 u P E ^ ' H j ;                                                 ",
"                                                    .   & q V { &...` [ <.y.8.&.} E E E P v q j F H U ^ ^ F u < @                                               ",
"                                                      + 4 u A  ...[ [ +.<.y.5.,.=.~ P Y P x j H U V U ' ! V u q ,                                               ",
"                                                      ; q x P  .o.` ..,.5.q.0.>.;.@.^ F S v Z ^ F Z ^ U Z V V v q @ .                                           ",
"                                                    ; q u F '  .[ ` } &.&.8.q.5.0.y.Y v x v P ^ H V F V v F ^ P a , .                                           ",
"                                                  , j n v D ^ #.o.3.u.0.y.f.h.a.f.<.A u u A Y ! Y j 4 j S U { P j q @                                           ",
"                                              . & u P >.o.j x T [ 6.j.c.c.M.v.u.*.^ H j d H ,.=.T V u v F Q ^ F V v 4                                           ",
"                                            o 3 s c ` e.y.o.F V V v F ....=.3.) F ^ ..Z j F u.0.L U F v A E H N P P u +                                         ",
"                                            , e u D ' o.:.u.t.=.&.U x Z Y =.y.i.7.,.:.v u F 3.=.P E ^ P V S V Z ! S e < +                                       ",
"                                          @ 6 w j C Y ` ] &.7.p.j.8.H V o.u.f.c.k.y.[ q q T i.5.H U ^ ^ Z u v I ^ S j r *                                       ",
"                                        X < 4 q k D T ..[ ` :.5.=.P u t P y.p.u.g.0.V < 3 P j.u.H U ^ ^ H j v U ^ U Z u *                                       ",
"                                      + < w u q u H ) X...o.&.S l l u d x Y 5.t.e._ 4 > < V 0.5.E H E E P v V U ' ^ V q 2 @                                     ",
"                                    % 3 4 v E N u V ^ o...E V v o.0.=.&.Y v S T S u 3 < u V ! } { U U ^ F j F ^ ^ S u 6 q *                                     ",
"                                  + q j j I 5.` v v E [ U ^ { *.7.u.k.p.o.Z j 4 3 q j ..t.*.D L @.^ E ^ Z v P { U q 3 q 6 & .                                   ",
"                              @ * q x M V P o.F u v Z P >.d.i.0.o.@.q.q.>.Y v 4 a [ 8.g.j.u.o.P ^ o.^ U V V E ' n 3 q j q &                                     ",
"                        . = ; 3 u S P P F V V q < u L 8.m.h.:.o.<.7.&.<.p.q.` j E c.c.0.&.7.i.,.^ ^ U P V V F Z p j Z V p < O .                                 ",
"                      @ ; q q e V E ^ ^ U V p 4 < j 8.M.v.2.&.+.,.0.=.=.0.u.0.! =.v.g.:.&.:.0.0.*.F C F V v V j v U U A j u ;                                   ",
"              . + - = 9 q u j Z E ^ E ^ ^ H u 9 u / j.B.h.;.;.:.:.:.[ [ :.2.>...*.j.g.:.=.>.,.5.=.P F F M V H J U ^ ^ P v u < .                                 ",
"              & q u h c k j v E ^ E U E ^ U V l Z @.v.V.s.:.>.&.*.=.=.:.&.>.5.) ^ p.g.1.:.>.=.e.8.^ ~ V B U ' ^ E U ^ ^ S u <                                   ",
"            . < i Z L F A j q P *.' U U U ^ H n H { f.V.v.y.>.&.:.4.u.i...$.u.5.! o.u.u.3.$.&.s.i.' ! F P ,.*.U U ! E ^ F j < O                                 ",
"            @ q V Y E H Z u 4 H 4.o.P E E E E H Z ' 7.v.V.x.>.` 5.5.>.i.7.:.q.p.=.H 5.k.3...0.j.i.] P U } 5.&.P U Q E ^ H i q ; .                               ",
"          . 3 V Y ^ E U F j 5 V <.&.P U E E E H A U *.u.c.m.p.=.7.6.5.f.u.q.y.u.8.H ^ p.0.i.c.g.q.&.U ' o.,.o.U Q U Q ! F u q > .                               ",
"          + u ^ ' E E ^ I x 9 V :.@.H P E E E E V V { 5.t.k.m.g.<.=.4.,.>.q.y.q.u.%.A :.n.B.v.p.q.>.E F ' &.' E P F F P P j 9 < X                               ",
"        O 6 V ^ ^ E E ^ E j q Z ^ -.%.H H U ^ ^ m j ^ ,.3.q.x.m.i.@.*.*.*.=.q.y.y.y.6.0.c.v.y.,.,...F v S E T F L F S J P b e q 3 X                             ",
"        & i F ^ ^ ^ E _ P u 4 V P 5.j.0.^ H P E Z j F o.,.<.q.g.j.i.0.y.s.e.i.x.c.N.Z.u.] ! ^ ' ] S u x V V N Z F K K Z x x v v j 4 o                           ",
"      + 7 h Z P P F S Z V u 4 q v ^ e.c.a.*.U H F v j Q 5.6.:.:.0.j.j.k.x.j.v.v.v.C.V.9.Z u v P F u 4 a j x v v x Z S x u v P S V j q o     .                   ",
"      ; 7 s u u j x x V F V x u 6 w H <.u.i.q.' P v j V ..=.o...o.:.7.6.>.5.u.7.,.7.3.&.^ p 9 p u q u x N S Z x v v u j B F ! U V j j q ; &                     ",
"      : 5 q u j F Y Y U E ~ [ ` F 6 4 v Z { 1.&.T i q v P ' ..+.{ ] ! _ ) ) [ [ Q H P ' ^ B e u q q l F P K F V V x 4 j P ^ ^ ! P V j j g 3 &                   ",
"    @ 6 d j F ` &.&.| Q } :.*.&.{ V p l v x V D V r q j v Z P ) ' { [ ^ ) ! ! ^ U F J P U F v u u u j F P F F K S l w Z ^ ^ U E E P v j j u 4 &                 ",
"    , j Z F I { o...} X.@.{ ^ ` ' @.' H J F V u q q u v j q q d n P U E E U U ~ P V F F V j q 3 u j v F G F F P F v v U ^ E U ! E P D v j j u 4 * . .           ",
"  @ 4 z S U ^ ^ [ [ @.X.I U { ..` ,.<.^ I P J e 4 g P ! V q 2 1 u k S ^ Q Q ! ^ U G F V j r q q q u D F F F F F F V V P ^ U E ~ U F F x j j v u 4 ; .           ",
". 2 q j Z L J P / >.:.{ { $.3.6.,.u.p.6.=.^ F q q V &.:.V u u x v u u x S U U E P F V j j V F u 4 u V S F F K F H S m U ^ E U E E F v v j j j z j 3 +           ",
". ; q x F H F Z H 4.0.y.i.6.7.y.q.u.f.f.8.E Z w q V I S x n L P Z v f q p l n S V p u u V C D j q j V F K F F P F S Z I ^ ^ E E Q P N A v j j j j 8 &           ",
"  . ; u v F F S Z I o.i.f.=.5.u.5.&.i.k.*.Z V V q u j j Z U ' U P I P v q 4 i x p q 3 q v V j q r j V F F F F F P H x j V F L P P K v j j u j v x u &           ",
"      , u N K P S D P &.$.$.0.u.u.u.u.5.T D F Y j < u P ^ ' ` [ ..{ ! P v q j x j u 4 q u w 4 q t k V F F F F F F V 8 4 v H E U K G Z t 4 q q j v u &           ",
"      @ q v V F J F S S ! 5.s.i.j.j.=.Z S F P P u q A ` @.,.&.....} ` E F w u p 4 q x D u 4 6 q t j V F K K F V v u u ` e.f.q.,.3.9.5.P v j 3 q j 4 &           ",
"        ; u x V F P V P ^ ^ [ ,.u.=.F F K K A j 4 v { X...,.y.8.#.....E Z u u u < j o.' S l q 4 q x Z F F F V V V Z ` q.x.c.f.u.j.c.z.>.^ S q 8 q 3 &           ",
"          ; q u v Z V V M v m v V v v V V N r 3 u U @.X.! [ q.0.:.:.:.[ U v e 2 u =.u.' F P v q u v V F P Z x F ! o.<.9.6.=.&.5.7.u.x.e.{ P V j j 3 & .         ",
"            & q u q e q q d v Z V v u q u q 4 3 B @.[ E ..:.<.,.5.3.3.3.:.F 4 3 F u.u.! H E ~ A j j x Z P v u F &.5.6.3.' F Y ..` ,.j.y.' U U S j q $           ",
"            . 3 u q 4 q u v U :.&.U Z v j 3 3 v ( o.` ' ,.y.e.5.:.>.>.6.7.! u x =.y.@.U U ^ ^ U S j q f j j S U { 6.7.' P E [ ` [ 8.u.0.[ U Y F V q &           ",
"              & 4 u 6 u G ..<.*.! P I K N u j F E [ o...*.8.0.<.:.,.,.3.5.o.B Z =.=.U U Q Q U U Y V q 7 4 j P ' [ o.{ P H { ..{ =.u.f.-.P U U U D j < .         ",
"                @ 2 u v E ..' F Z S F F S N v Z Y ..$.Q ..7.*.&.,.:.,.,.*.^ Z V 5.0.P H Q U E ^ ! S u 4 9 j H ' &.@.J P ' | [ [ 5.c.v.o.Z Y ^ U H v u -         ",
"                  + 6 V P P Z Z F F F F Z x M P | ` T ` ..=.*.&.8.0.,.+.[ E V n q.j.E H U U Q Q U S j 5 4 u V ^ &.,.` P [ ..! ! q.M.g.^ H U E ^ I m u ; X       ",
"                    + q v F K P F P L M j j H ^ _ F F } &.o.:.0.q.7.| [ ..^ j u @.h.1.Q P U U Q U S V u 4 q F ' &.5.&.! ! / ! 5.c.M.=.H U ^ E ^ E Z u & X       ",
"                      + 4 v C V S J S v j A ^ ^ ! ` ..8.q.5.>.8.<...`  .@.^ w q V >.g.8.Q P U Q I F G k q i F ' &.5.7.=.[ ..i.M.B.g.~ H ^ Y P Y ^ F f & o       ",
"                        + q u u j j j j V ( [ ! &.i.i.q.9.&.&.5.&._  .&...F q q q D <.y.,.` Y E I G F k j x F E ! :.g.x.u.s.N.C.z.] F P P K S F U P j &         ",
"                        X < u e 8 4 8 u A } &.[ 7.j.y.>.&.' 5.d.5.` [ [ J u 4 q q u v ` ,.*.` E U F S v b h s B S >.m.B.c.h.s.u.:.H Z F F F F F F N u -         ",
"                          o < t q 3 u A P ` :.&.5.=.} >.*.7.z.p.&.| ` V q q q 6 q q q j P ' E U P P F h x b y y G 5.s.f.0.:.) K F S S F F F F K F v u & .       ",
"                            . ; q u j F _ ` [ ,.$.T ` &.r.v.f.o.` | R w 4 j u q q q 9 5 j F P C S S j s c J D j v I [ [ U P H Z S F F F F F F F F Z p *         ",
"                                < j Z Y o.! [ 5.:.o.E $.v.m.:.U ^ ' A q j j j k u q 9 4 q v C V V u q f A E &.` v j N H E U U U F F F F F F K K V j u &         ",
"                              . < v F @.:.[ =.:.5.5.=.j.m.5.E U E ~ m q g x x x j q 8 8 4 5 j Z v q 8 v F ! 8.p.=.v u x P ^ ' Q F D F H F K K S j q w ;   .     ",
"                              < u V ! o.....:.7.9.r.b.Z.f.L H ^ P F j 4 6 j x x u 4 q x u 4 4 i j q q S Y ) <.x.j.` x j j F ^ U K F J U Y P F f 4 q w 6 =       ",
"                            O 6 j H ~ E ..:.3.u.f.l.B.n.6.=.1.{ F j 3 q 6 q a p 8 q Z Y Z j q 4 q u j F ! _ #.e.g.u.' a 2 2 u n F F F F F F j 6 4 q q q ; .     ",
"                            + 6 v F P E &.5.%.! | 9.7.#.:.u.f.*.B q q v l q q 6 u F Y V j x j u q u j A F P P | y.p.Y < < 3 q p j j V j u q q q q q q q * o     ",
"                          . , a V V D E ` ' ! F V F F S U ' { P a q Z E v u q 3 j ! P j u j x j j u q q v F F P Y Z j P =.6.@.P Z V V F V z u q j j u 4 ;       ",
"                          @ 3 u j m P ^ U U E P F Z S S V B v v u u F V x z u 4 j Z x j j j j j j j t 4 u B m j < < *.B.V.M.j.X.U U ` ,.:.! B p j x u q ,       ",
"                          & 3 q u V E ^ E Q P V F F F F F F V x u p v j j u q q u z j j j j j j j j V x j j j w < v f.M.g.z.x.>.H E @.@.@./ l q j x u w 6 %     ",
"                          + 3 q j D F P P P F F F F F F K K S x q u v x u 6 4 q q u j j j j j v v v S F v u w q j o.5.&.P 1.k.8.H U ^ U ^ U v u w u q q q , .   ",
"                          . ; q v v v S F G F S F F F P P S v x u q u u 9 e q q 4 u j j z v V S S v j j p q 4 q Z @.Y F H @.q.<.U U E E P P E D q 4 q q q ; .   ",
"                            . 4 j j j D F F F P P P P S F v j x u 4 6 q u z x u q q u V Z V v v j e 4 4 6 q q q l F S U ^ E { *.^ U U H H U U m q 6 q q q < .   ",
"                              - 8 j j a j v S F Z B v j j j u g q q u x x Z V n p 4 q x x g u q 4 q q 6 9 q q q 5 u S Y P H P ` [ ' { Y Y P F x q q q q u 6 @   ",
"                            . . % < 4 9 y j z f i d q 4 < < q q q u x D Z v l j u q q 6 6 6 6 q q q q u q q q q 6 u A G V n S S U | [ ..! Z S v q q q q q w < . ",
"                                    # 4 h j q 3 i h 0 *   O 1 q 4 u v V V x j q q q q q q q q u j x j l x a q q q j V F V x N S P H n F P V v V j w q q w q < + ",
"                                      @ < 9 u u q 3 ;     O < q q j v j u j u q q q q q q q u k v Z Z S S v e q q q v K Z x Z I S f u u l V V v l j u q q w 2 O ",
"                                          + < 3 & .       + < q q q q q q w 6 q e u q q q j j Z I P K F V u q 6 4 r V P V v S F v j f j f x Z N V j q q w q ; . ",
"                                            . .           + < q e q q q e 3 @ * 4 q t e q j v S F P F x q q q & % s B F P J F v j j j j j j V V V j q q u 3 X   ",
"                                                          . , u u q e u 4 &     o * 4 q q j x j x v j q q q ;   + u u v H F V x j j j j j j k Z V j j u q ; .   ",
"                                                            o < 6 3 6 3 @           . & 3 r u w q q r u u =     + 4 q u u j j p j l j j j j j x V V x h y *     ",
"                                                            . . % & @ O                 . % < 4 4 3 4 6 ;     . . O * 2 4 2 6 q u u j x l l j l m A v g < o     ",
"                                                                                            . @ & & & @               O % @ @ ; 4 4 6 u u j x x v v j e *       ",
"                                                                                                                          .   . @ * & & < q e u u q q ; . .     ",
"                                                                                                                                        . @ & * * & @ .         "
};
