/* XPM */
static char *f4ed2a36a86743dcbba6af3aecf3767f7HAXAtSopwVr8bkR[] = {
/* columns rows colors chars-per-pixel */
"80 80 239 2 ",
"   c #000000",
".  c #0B0402",
"X  c #0C0905",
"o  c #040409",
"O  c #0A060A",
"+  c #030A0B",
"@  c #0C0B0B",
"#  c #120402",
"$  c #1C0100",
"%  c #150902",
"&  c #1C0C03",
"*  c #16060B",
"=  c #130D0C",
"-  c #1D0B0B",
";  c #11110E",
":  c #000A12",
">  c #0E0D12",
",  c #120C12",
"<  c #190D15",
"1  c #0B1414",
"2  c #09161A",
"3  c #131314",
"4  c #1B1515",
"5  c #15151A",
"6  c #19151A",
"7  c #171A19",
"8  c #1C1B1C",
"9  c #230302",
"0  c #2B0301",
"q  c #240B06",
"w  c #2C0B04",
"e  c #280C0A",
"r  c #330300",
"t  c #390902",
"y  c #28150A",
"u  c #361307",
"i  c #2B0E18",
"p  c #261519",
"a  c #211E1C",
"s  c #36161A",
"d  c #362705",
"f  c #25211D",
"g  c #2A241B",
"h  c #39271B",
"j  c #0B1E2E",
"k  c #171E21",
"l  c #1C1D22",
"z  c #211E23",
"x  c #2A1E25",
"c  c #371B27",
"v  c #261F34",
"b  c #0D272A",
"n  c #1C2427",
"m  c #242324",
"M  c #2A2625",
"N  c #262926",
"B  c #2C2926",
"V  c #24252A",
"C  c #29262B",
"Z  c #26292C",
"A  c #2C2B2C",
"S  c #362828",
"D  c #322D2C",
"F  c #2E312D",
"G  c #35312C",
"H  c #3A352C",
"J  c #2C2730",
"K  c #242D33",
"L  c #2D2C33",
"P  c #322E34",
"I  c #392C35",
"U  c #2E3334",
"Y  c #2B3634",
"T  c #333234",
"R  c #3A3535",
"E  c #393937",
"W  c #35353A",
"Q  c #3A363B",
"!  c #343A3B",
"~  c #3B3A3C",
"^  c #450C01",
"/  c #490C04",
"(  c #560600",
")  c #471808",
"_  c #561A07",
"`  c #571015",
"'  c #660101",
"]  c #750404",
"[  c #681C0B",
"{  c #592408",
"}  c #4F3505",
"|  c #482617",
" . c #572917",
".. c #692709",
"X. c #6D2E14",
"o. c #763A1A",
"O. c #471929",
"+. c #571B2E",
"@. c #611E34",
"#. c #4B2829",
"$. c #592929",
"%. c #482B38",
"&. c #552833",
"*. c #463539",
"=. c #423B3B",
"-. c #56393A",
";. c #73392E",
":. c #66273A",
">. c #693A39",
",. c #38423A",
"<. c #544810",
"1. c #6F5700",
"2. c #765E09",
"3. c #4A4433",
"4. c #44423D",
"5. c #4C473A",
"6. c #51453C",
"7. c #684736",
"8. c #7B5031",
"9. c #697B3A",
"0. c #3C3C42",
"q. c #383A44",
"w. c #443842",
"e. c #413E44",
"r. c #593945",
"t. c #653948",
"y. c #793147",
"u. c #7E3E55",
"i. c #3E4144",
"p. c #3C484D",
"a. c #384853",
"s. c #434244",
"d. c #4A4543",
"f. c #4B4A43",
"g. c #45444A",
"h. c #49464A",
"j. c #464A4E",
"k. c #4B4A4C",
"l. c #554944",
"z. c #524D4D",
"x. c #4A504B",
"c. c #58544A",
"v. c #464B51",
"b. c #464C57",
"n. c #4C4C53",
"m. c #524E53",
"M. c #524F59",
"N. c #4B5256",
"B. c #4D535A",
"V. c #535255",
"C. c #5A5453",
"Z. c #565854",
"A. c #5C5955",
"S. c #54545B",
"D. c #59565B",
"F. c #555A5D",
"G. c #5C5A5C",
"H. c #794D43",
"J. c #714F4F",
"K. c #64554D",
"L. c #665954",
"P. c #615B5C",
"I. c #5D615D",
"U. c #68635C",
"Y. c #706753",
"T. c #4E5660",
"R. c #5C5C63",
"E. c #585964",
"W. c #615E62",
"Q. c #625F69",
"!. c #5D6165",
"~. c #5E616A",
"^. c #5C6676",
"/. c #646264",
"(. c #6A6362",
"). c #64646A",
"_. c #6A666C",
"`. c #6A6A69",
"'. c #6C6A6C",
"]. c #726867",
"[. c #6B6C72",
"{. c #686E76",
"}. c #726E74",
"|. c #6D737A",
" X c #73727A",
".X c #797578",
"XX c #890205",
"oX c #8B2D0C",
"OX c #9A2A16",
"+X c #B13017",
"@X c #863E2F",
"#X c #D63819",
"$X c #8E5900",
"%X c #916314",
"&X c #86482C",
"*X c #884C34",
"=X c #D3411D",
"-X c #823647",
";X c #8A3D56",
":X c #943B53",
">X c #904B54",
",X c #946A50",
"<X c #935262",
"1X c #A24F66",
"2X c #916B6C",
"3X c #867978",
"4X c #AF626A",
"5X c #AE6E75",
"6X c #A69209",
"7X c #D19B14",
"8X c #F18F0D",
"9X c #FFFF02",
"0X c #DDB847",
"qX c #E0C950",
"wX c #585983",
"eX c #757980",
"rX c #7B7B83",
"tX c #8C7E87",
"yX c #A37D81",
"uX c #BD7B82",
"iX c #84828A",
"pX c #878588",
"aX c #928C8A",
"sX c #8D8C94",
"dX c #908F97",
"fX c #96969B",
"gX c #A68788",
"hX c #A79E9A",
"jX c #B89194",
"kX c #ABA19F",
"lX c #9B9AA2",
"zX c #A5A3A7",
"xX c #B3B5AC",
"cX c #D5ADA5",
"vX c #C6C2BE",
"bX c #F1C6A5",
"nX c #BEBCC5",
"mX c #F5D0C2",
"MX c #FFFBCC",
/* pixels */
"                                                                                                                                                                ",
"                                                                                                                                                                ",
"                                                                                                                                                                ",
"                                                                                                                                                                ",
"                                                                                                                                                                ",
"                                                                                                                                                                ",
"                                                                                                                                                                ",
"                                                                                                                                                                ",
"                                                                                                                                                                ",
"                                                                                                                                                                ",
"                                                                                                                                                                ",
"                                                                                                                                                                ",
"                                                                                                                                                                ",
"                                                                              o                                                                                 ",
"                                                                      6 m.z 5 5 5 , o     o                                                                     ",
"                                                                  > e._.G.N 3 = , 5 V z 6 O                                                                     ",
"                                                              @ I D.Z.F + @ X # . . + 7 V J x 8 O                                                               ",
"                                                          , S A.(.,.8 @ . . .   . . . . . @ l Z P J 6 O   o                                                     ",
"                                                      , I L.Y.c.m X .             + @   .     @ 3 z I Q x , o                                                   ",
"                                                o p I P.P.3.g X   . .           0 - b b n 8 X     o . 5 x J *.C < o                                             ",
"                                            O c *.l.K.d.8 .   .         e [ 0   9 XX] s k b n z 3 . . . . @ n I w.*.c O                                         ",
"                                      o < S w.=.4.G 5   . .             e OX#XOXu r ( ] ' r i m K m o . .   . . o n I Q S < o                                   ",
"                                  o p %.R F H 8 @ .   .       .   o   q q   O [ +X+X_ w $ ] ' ' 0 7 7     o   X &   o m , p c %.,                               ",
"                                i %.S @ f g o . % .               . { { # h %X<.p / OX=XOXw . 0 $           % . . 5 8 5 C p.T 8 c                               ",
"                              O #.B B a f a 3 = # . # .           { {   1 qX8X0X9.# % e ..#X+X.         X % . @ 8 n A s.!.q.e w c                               ",
"                              c I C H 6.3.G g a ; @ X . X o       u u 4 h  .9 % ) oX%     q u     . o % # o 8 Z N 0.{.G.s r  .X.O.                              ",
"                              %.I m D D G =.E B 8 3 3 @ . . % .     & u q   & u ) *               % %   3 L C Q ). Xd.0 _ &XN | O.                              ",
"                              &.=.~ Q M D D S R E T C a 7 3 X . # %     . % % X               X % . 3 W L T S.|.).p r @X,Xp.: $.&.                              ",
"                              O.r.i.G.g.Q D S C F ~ e.E A m l 3 X . % #                   . % .   N ~ T d.|.wX6.$ ^ ,X(.a.! @ -.O.o                             ",
"                              O.r.i./.V./.n.W C D T M ~ k.~ A z 8 5 @ . . % . o       . % # . 5 ! ! D /.eXV.%X8X(  .S.1 ,.i.X >.O.                              ",
"                              s t.Y T 6 0.!.E.0.T P N C D e.s.~ A m 8 7 @ . . % .   X & . + Z ! T h.[..Xv d 9X7X` V 1 D i.Z % >Xc                               ",
"                              i u.W 5 m 3 z /.!.n.s.P A C V A ~ s.e.T C z 8 3 o . & #   z ! L ~ R.{.h.%   } 6X) 7.{.e.m k.F % >XO.                              ",
"                              - ;X~ 5 7 C z m S._.).M.e.T A A m A ~ h.h.R N m a ; X ; F T G k.`.I.8 . o.X.. / Y.sX0.4 e.P.n y >Xc                               ",
"                              o :.~ ~ m l M o @ L D._.D.g.0.~ L M B N ~ 4.6.H a f f m f B Z.I.T # ^ &Xl.8.*X3X^.C M G.P.s.M | -X*                               ",
"                                @.%.j.F.0.A ~ 8 o > L S.W.S.g.s.W N M A F *.3.3.3.a a 3.K.3.- $ X.,XS.o m d.K f d..XP.g.p.| S -X.                               ",
"                                +.r.! S.F.n.W.W.s.3 o < Q E./.S.n.i.T G H H B G 5.6.5.5.g 9 _ &XL.a.B.A.g.n d..X.Xz.=.g.K.9 c y.                                ",
"                                +.r.! V.v.v.n.R.eX/.W 3 o 8 ~ S.R.!.!.V.T P T M B H S e r X.7.I.2 D '.k.d.}.pX.XP.4.s.V.| % $.:.                                ",
"                                O.t.! D.S.S.M.E.E.|.[.S.W 5 o 4 ~ n.g._._.j.W D D N % t o.N b x.8 e.e.s.'.}.'.].G.s.G.l.^ d @XO.                                ",
"                                s u.i.R.T.T.E.).E.R.S.n.).).W 3 ; 8 = 7 h.R.S.~ L L - { | : E Z.4.T k.'.[./.G.V.s.z.V.*.{ 1.-XO.                                ",
"                                - >XY B.D.D.S.~.E.n.T.eXp.~..XR.C 8 m 8 . T '.n.T L q _ h 1 G E D k.P.'._.k.U.(.=.z.N.*.{ <.;Xs                                 ",
"                                * 1XT V.j.n.S.F.R.T.zXnX.Xp.F.}.V.6 8 m 7 A G.D.T K - _ h 2 G R h.V.G./.m.P.3XW.f.m.N.*.} y <X*                                 ",
"                                o 1XW N.S.g.n.E.E.R.xXmXmXiXb.S.S.k.C 7 , N s.e.W P e _ h 5 4.j.4.h.G.C.P.].W.C.].z.N.-.9 w :X                                  ",
"                                  1XT W pXiXs.p.E.E.aXhXMXbX).n.n.S.D.g.6 A G.~ A D - s f 3 ~ h.s.d.m.D.].}.W.P.}.m.D.;.^ p :X                                  ",
"                                  :X*.V }.nXdX[.E.n.}.M.E K.iXT.n.g.S.V.n.M.D.V.0.P % | S 8 5.h.k.V.n.P._._.W..XP.m.n.K.X.;.:X                                  ",
"                                  y.r.n n.|.lXzXdX[.M.iXq.j.sXs.n.j.v.g.n.S.B.k.e.=.9 _ A j q.h.k.S.n.W._.W.Q.].C.V.A.p.2 *Xy.o                                 ",
"                                  >.t.n S.s.M.rXlXlXdXE..XzX!.s.j.N.n.g.n.V.S.g.=.s.q _ 8.7.Y.f.n.d.S./.D.C..X(.A.P.z.s.2 8.:.                                  ",
"                                  &.J.k S.rXE.q.E.rXzXdXiXi.q.N.j.j.v.s.s.n.S.i.=.=.y t { ..oXc.N.k.n.G.g._.3X(.G.P.k.~ ; >X&.                                  ",
"                                  c <X1 W E.tX}.e.M.Q.dXnXrX_.q.g.j.n.s.i.n.n.s.R d.s r r 0 ^ 6.B.k.V.=.h.rX[.A.W.G.Z.! % 4Xc                                   ",
"                                  - <X+ A L M. XeX_.q.E.tXdXlXrX!.i.W s.g.n.k.g.i.f.u r u t _ c.b.g.S.T n._./.U.`./.G.L   4Xp .                                 ",
"                                  o 1X1 m Z J P S. XM.n.h.E.dXlXR.rXR.W 0.0.0.q.i.~ w u d w _ c.b.v.0.n.(.m.G.(.'.N v.1 u 5X                                    ",
"                                    <XM o l L P w.b.m.E.E.n.e.Q.g.sXfXA W P q.P E T 0 } <.^ _ A.T.f.i.P.A.V.z.P.C.2 A $.4X=                                     ",
"                                    g <X  o J W q.e.w.w.S.Q.E.e.W eX XQ sXv.l V Z T $ 2.%Xr _ A.~.z.k.C.K.P.j.V.b.g X.5X,                                       ",
"                                      %.5X, o V q.w.0.0.0.M.E.W.Q.n.0.0.rXlXJ , l l * 2.2.0 _ A.[.z.c.W.].].U.T 4 >XuX@                                         ",
"                                        x cXl.o v e.q.W P q.g.M. XeXS.W M.lXn.k 3 > 9 <.d r ;.U.5.f.].U. XY...) >X5X.                                           ",
"                                        o < 2XyXx > e.q.W 0.0.Q g.[.sX[.s.q.n.g.8 @ q d 9 [ L.A.6.K.P.'.J.' $ 2XY..                                             ",
"                                              4 gXL.5 l s.0.W 0.Q q.R.|.}.Q.q.0.A g y $ t 7.p.L.].c.V.6.$X7XjX#.                                                ",
"                                                . K.yXM o W 0.Q Q P J e.[. XL J W D w r  .W s.(.U.Z.L.u 7XbXI                                                   ",
"                                                    6 gX]., k e.e.W q.q.e.E.q.P W G 9 ) H n A.B B U.) >.aX4                                                     ",
"                                                        d.gX*.O W g.q.0.W W 0.~ V Z w  .l G V.3 Y | H.2X                                                        ",
"                                                          O (.3X6 > Q i.! U q.W Z a 0  .z A g.~ _ 2X3X                                                          ",
"                                                              =.kX*.  C 0.W q.U Z m r  .8 Y ~ ) 5X.X                                                            ",
"                                                                . 3XpX4 o W ! L m 8 t  .2 % $.gXZ.                                                              ",
"                                                                    d.zXd.  z 0.n 3 u |   $.hXM                                                                 ",
"                                                                      3 aXaX5 o l 4 9 ^ H.hX3                                                                   ",
"                                                                          k.vXk.  = w 2XhX+                                                                     ",
"                                                                            f zXfXpXpX,.                                                                        ",
"                                                                                                                                                                ",
"                                                                                                                                                                ",
"                                                                                                                                                                ",
"                                                                                                                                                                ",
"                                                                                                                                                                ",
"                                                                                                                                                                ",
"                                                                                                                                                                ",
"                                                                                                                                                                ",
"                                                                                                                                                                ",
"                                                                                                                                                                ",
"                                                                                                                                                                ",
"                                                                                                                                                                ",
"                                                                                                                                                                ",
"                                                                                                                                                                "
};
